<?xml version="1.0" standalone="no"?>
<!DOCTYPE svg PUBLIC "-//W3C//DTD SVG 20010904//EN"
 "http://www.w3.org/TR/2001/REC-SVG-20010904/DTD/svg10.dtd">
<svg version="1.0" xmlns="http://www.w3.org/2000/svg"
 width="1024.000000pt" height="1024.000000pt" viewBox="0 0 1024.000000 1024.000000"
 preserveAspectRatio="xMidYMid meet">
<metadata>
Created by potrace 1.14, written by Peter Selinger 2001-2017
</metadata>
<g transform="translate(0.000000,1024.000000) scale(0.100000,-0.100000)"
fill="#000000" stroke="none">
<path d="M4601 9359 c-14 -5 -43 -25 -66 -43 -68 -56 -338 -448 -535 -776 -51
-85 -102 -166 -114 -179 -11 -13 -73 -49 -136 -80 -63 -31 -141 -74 -173 -95
-127 -85 -234 -205 -289 -326 -77 -167 -94 -197 -137 -243 -25 -27 -77 -67
-116 -89 -134 -78 -213 -129 -248 -161 -19 -18 -87 -76 -150 -130 -319 -269
-768 -771 -1001 -1116 -135 -201 -162 -277 -153 -436 18 -316 188 -508 567
-640 58 -20 167 -52 245 -73 128 -33 152 -36 280 -37 137 0 142 1 206 31 37
18 121 68 187 113 142 96 250 149 318 157 40 5 68 0 139 -24 50 -17 122 -36
161 -43 63 -10 83 -9 168 9 129 28 238 78 431 197 348 215 581 321 721 327 64
3 63 5 93 -94 34 -110 27 -240 -24 -423 -9 -33 -23 -71 -30 -86 -17 -31 -108
-142 -150 -182 -89 -83 -474 -355 -552 -389 -41 -18 -249 -145 -313 -191 -30
-22 -98 -83 -150 -136 -191 -194 -287 -346 -583 -933 -141 -279 -180 -365
-208 -460 l-34 -118 -39 0 c-21 0 -78 -9 -127 -21 -110 -25 -190 -75 -253
-156 -140 -178 -246 -548 -246 -861 0 -150 8 -177 62 -205 31 -17 182 -18
2773 -15 2700 3 2740 3 2769 23 43 29 56 71 56 184 0 356 -125 746 -292 914
-52 52 -68 74 -68 96 0 16 49 128 114 257 222 445 348 784 467 1252 243 962
234 1893 -28 2626 -46 130 -155 380 -200 458 -236 418 -548 744 -923 965 -187
110 -491 233 -660 267 -14 3 -63 14 -110 25 -47 11 -166 30 -265 43 -160 20
-221 23 -547 23 l-366 0 -6 29 c-3 16 -6 52 -6 80 -1 131 -73 334 -175 492
-114 177 -192 230 -284 193z"/>
</g>
</svg>
