<?xml version="1.0" standalone="no"?>
<!DOCTYPE svg PUBLIC "-//W3C//DTD SVG 20010904//EN"
 "http://www.w3.org/TR/2001/REC-SVG-20010904/DTD/svg10.dtd">
<svg version="1.0" xmlns="http://www.w3.org/2000/svg"
 width="1024.000000pt" height="1024.000000pt" viewBox="0 0 1024.000000 1024.000000"
 preserveAspectRatio="xMidYMid meet">
<metadata>
Created by potrace 1.14, written by Peter Selinger 2001-2017
</metadata>
<g transform="translate(0.000000,1024.000000) scale(0.100000,-0.100000)"
fill="#000000" stroke="none">
<path d="M4540 10234 c-14 -2 -79 -11 -145 -20 -857 -113 -1743 -488 -2450
-1039 -963 -749 -1637 -1850 -1874 -3060 -67 -342 -66 -333 -66 -995 0 -662
-1 -653 66 -995 170 -869 571 -1696 1146 -2365 745 -868 1779 -1468 2908
-1689 342 -67 333 -66 995 -66 662 0 653 -1 995 66 869 170 1696 571 2365
1146 868 745 1468 1779 1689 2908 67 342 66 333 66 995 0 662 1 653 -66 995
-221 1129 -821 2163 -1689 2908 -662 569 -1483 969 -2340 1141 -346 70 -340
70 -985 72 -324 1 -601 0 -615 -2z m880 -1067 c63 -14 147 -35 185 -47 80 -26
305 -133 344 -165 14 -12 57 -43 95 -70 185 -130 369 -361 457 -574 17 -42 37
-89 44 -106 67 -153 105 -452 85 -671 -18 -205 -42 -299 -123 -480 -70 -158
-170 -298 -322 -451 -129 -130 -132 -133 -110 -147 26 -17 124 -58 180 -76 22
-7 58 -21 81 -31 43 -19 178 -58 229 -67 17 -2 35 -8 40 -13 32 -25 429 -92
517 -87 l66 4 -24 -46 c-13 -25 -64 -121 -113 -215 l-88 -170 -329 -2 c-373
-2 -824 -12 -824 -18 0 -2 -7 -57 -16 -122 -20 -151 -26 -369 -13 -502 12
-120 35 -264 48 -289 12 -24 27 -70 63 -187 16 -55 34 -101 39 -103 5 -2 9
-10 9 -18 0 -8 4 -22 9 -32 5 -9 26 -60 47 -112 130 -331 357 -627 673 -879
174 -138 233 -170 553 -303 403 -166 490 -203 568 -243 179 -90 302 -196 362
-312 59 -115 63 -140 63 -428 l0 -260 -3095 0 -3095 0 0 260 c0 288 4 313 63
428 60 116 183 222 362 312 78 40 165 77 568 243 320 132 379 165 553 303 208
165 416 398 542 606 70 117 135 270 220 523 109 324 112 343 112 715 0 171 -4
331 -8 357 l-8 48 -577 2 -577 3 -112 215 c-62 118 -113 218 -113 221 0 3 33
6 73 6 138 1 486 75 755 159 168 53 302 108 302 123 0 4 -17 21 -37 37 -147
114 -314 329 -399 514 -43 93 -50 112 -82 215 -112 359 -93 662 68 1070 24 62
117 213 187 306 83 110 179 204 279 274 38 27 81 58 95 70 44 36 269 141 359
169 74 22 220 55 315 70 17 2 100 3 185 1 118 -3 182 -9 270 -28z"/>
</g>
</svg>
