<?xml version="1.0" encoding="UTF-8" standalone="no"?>
<svg
   xmlns:dc="http://purl.org/dc/elements/1.1/"
   xmlns:cc="http://creativecommons.org/ns#"
   xmlns:rdf="http://www.w3.org/1999/02/22-rdf-syntax-ns#"
   xmlns:svg="http://www.w3.org/2000/svg"
   xmlns="http://www.w3.org/2000/svg"
   xmlns:xlink="http://www.w3.org/1999/xlink"
   xmlns:sodipodi="http://sodipodi.sourceforge.net/DTD/sodipodi-0.dtd"
   xmlns:inkscape="http://www.inkscape.org/namespaces/inkscape"
   version="1.1"
   width="45"
   height="45"
   id="svg15"
   sodipodi:docname="logo.svg"
   inkscape:version="0.92.4 (5da689c313, 2019-01-14)"
   inkscape:export-filename="F:\Projects\chess-in-5d\public\logo512.png"
   inkscape:export-xdpi="1092.27"
   inkscape:export-ydpi="1092.27">
  <metadata
     id="metadata21">
    <rdf:RDF>
      <cc:Work
         rdf:about="">
        <dc:format>image/svg+xml</dc:format>
        <dc:type
           rdf:resource="http://purl.org/dc/dcmitype/StillImage" />
        <dc:title></dc:title>
      </cc:Work>
    </rdf:RDF>
  </metadata>
  <defs
     id="defs19">
    <linearGradient
       id="linearGradient4809"
       inkscape:collect="always">
      <stop
         id="stop4805"
         offset="0"
         style="stop-color:#000000;stop-opacity:1" />
      <stop
         id="stop4807"
         offset="1"
         style="stop-color:#ffffff;stop-opacity:1" />
    </linearGradient>
    <linearGradient
       inkscape:collect="always"
       id="linearGradient4755">
      <stop
         style="stop-color:#ffffff;stop-opacity:1"
         offset="0"
         id="stop4751" />
      <stop
         style="stop-color:#000000;stop-opacity:1"
         offset="1"
         id="stop4753" />
    </linearGradient>
    <linearGradient
       inkscape:collect="always"
       xlink:href="#linearGradient4809"
       id="linearGradient4757"
       x1="26.785322"
       y1="21.757032"
       x2="18.054729"
       y2="22.006947"
       gradientUnits="userSpaceOnUse" />
    <linearGradient
       inkscape:collect="always"
       xlink:href="#linearGradient4755"
       id="linearGradient4817"
       x1="24.860558"
       y1="28.266109"
       x2="18.350948"
       y2="27.901112"
       gradientUnits="userSpaceOnUse" />
    <linearGradient
       inkscape:collect="always"
       xlink:href="#linearGradient4809"
       id="linearGradient4825"
       x1="18.51074"
       y1="31.900885"
       x2="24.63121"
       y2="31.805544"
       gradientUnits="userSpaceOnUse" />
    <linearGradient
       inkscape:collect="always"
       xlink:href="#linearGradient4809"
       id="linearGradient4833"
       x1="18.231161"
       y1="25.247158"
       x2="25.209385"
       y2="25.115717"
       gradientUnits="userSpaceOnUse" />
    <linearGradient
       inkscape:collect="always"
       xlink:href="#linearGradient4809"
       id="linearGradient4841"
       x1="19.867754"
       y1="18.413277"
       x2="25.370592"
       y2="18.460945"
       gradientUnits="userSpaceOnUse" />
    <linearGradient
       inkscape:collect="always"
       xlink:href="#linearGradient4809"
       id="linearGradient4849"
       x1="20.955421"
       y1="7.9523306"
       x2="24.187588"
       y2="8.0476694"
       gradientUnits="userSpaceOnUse" />
    <linearGradient
       inkscape:collect="always"
       xlink:href="#linearGradient4809"
       id="linearGradient4857"
       x1="19.843145"
       y1="9.0533466"
       x2="24.727829"
       y2="9.0056772"
       gradientUnits="userSpaceOnUse" />
  </defs>
  <sodipodi:namedview
     pagecolor="#ffffff"
     bordercolor="#666666"
     borderopacity="1"
     objecttolerance="10"
     gridtolerance="10"
     guidetolerance="10"
     inkscape:pageopacity="0"
     inkscape:pageshadow="2"
     inkscape:window-width="1920"
     inkscape:window-height="1177"
     id="namedview17"
     showgrid="false"
     inkscape:zoom="20.977778"
     inkscape:cx="19.562075"
     inkscape:cy="18.524203"
     inkscape:window-x="1358"
     inkscape:window-y="-8"
     inkscape:window-maximized="1"
     inkscape:current-layer="layer2" />
  <g
     inkscape:groupmode="layer"
     id="layer2"
     inkscape:label="Layer 2">
    <circle
       id="path29"
       cx="22.5"
       cy="22.5"
       style="fill:url(#linearGradient4757);stroke-width:1.01291168;fill-opacity:1"
       r="22.5" />
  </g>
  <g
     inkscape:groupmode="layer"
     id="layer1"
     inkscape:label="Layer 1">
    <g
       style="fill:none;fill-opacity:1;fill-rule:evenodd;stroke:#000000;stroke-width:1.5;stroke-linecap:round;stroke-linejoin:round;stroke-miterlimit:4;stroke-dasharray:none;stroke-opacity:1"
       id="g13">
      <path
         d="M 22.5,11.63 L 22.5,6"
         style="fill:none;stroke:url(#linearGradient4857);stroke-linejoin:miter"
         id="path6570" />
      <path
         d="M 22.5,25 C 22.5,25 27,17.5 25.5,14.5 C 25.5,14.5 24.5,12 22.5,12 C 20.5,12 19.5,14.5 19.5,14.5 C 18,17.5 22.5,25 22.5,25"
         style="fill:#000000;fill-opacity:0;stroke-linecap:butt;stroke-linejoin:miter;stroke:url(#linearGradient4841)"
         id="path3" />
      <path
         d="M 11.5,37 C 17,40.5 27,40.5 32.5,37 L 32.5,30 C 32.5,30 41.5,25.5 38.5,19.5 C 34.5,13 25,16 22.5,23.5 L 22.5,27 L 22.5,23.5 C 19,16 9.5,13 6.5,19.5 C 3.5,25.5 11.5,29.5 11.5,29.5 L 11.5,37 z "
         style="fill:#ffffff;stroke:url(#linearGradient4817);fill-opacity:0;stroke-opacity:1"
         id="path5" />
      <path
         d="M 20,8 L 25,8"
         style="fill:none;stroke:url(#linearGradient4849);stroke-linejoin:miter"
         id="path7" />
      <path
         d="M 32,29.5 C 32,29.5 40.5,25.5 38.03,19.85 C 34.15,14 25,18 22.5,24.5 L 22.51,26.6 L 22.5,24.5 C 20,18 9.906,14 6.997,19.85 C 4.5,25.5 11.85,28.85 11.85,28.85"
         style="fill:none;stroke:url(#linearGradient4833)"
         id="path9" />
      <path
         d="M 11.5,30 C 17,27 27,27 32.5,30 M 11.5,33.5 C 17,30.5 27,30.5 32.5,33.5 M 11.5,37 C 17,34 27,34 32.5,37"
         style="fill:none;stroke:url(#linearGradient4825)"
         id="path11" />
    </g>
  </g>
</svg>
