<?xml version="1.0" encoding="UTF-8" standalone="no"?>
<svg
   xmlns:dc="http://purl.org/dc/elements/1.1/"
   xmlns:cc="http://creativecommons.org/ns#"
   xmlns:rdf="http://www.w3.org/1999/02/22-rdf-syntax-ns#"
   xmlns:svg="http://www.w3.org/2000/svg"
   xmlns="http://www.w3.org/2000/svg"
   xmlns:sodipodi="http://sodipodi.sourceforge.net/DTD/sodipodi-0.dtd"
   xmlns:inkscape="http://www.inkscape.org/namespaces/inkscape"
   version="1.0"
   width="840px"
   height="859px"
   viewBox="0 0 840 859"
   preserveAspectRatio="xMidYMid meet"
   id="svg1022"
   sodipodi:docname="Open5DChessLogo.svg"
   inkscape:version="1.0.2-2 (e86c870879, 2021-01-15)">
  <metadata
     id="metadata1028">
    <rdf:RDF>
      <cc:Work
         rdf:about="">
        <dc:format>image/svg+xml</dc:format>
        <dc:type
           rdf:resource="http://purl.org/dc/dcmitype/StillImage" />
        <dc:title></dc:title>
      </cc:Work>
    </rdf:RDF>
  </metadata>
  <defs
     id="defs1026" />
  <sodipodi:namedview
     pagecolor="#ffffff"
     bordercolor="#666666"
     borderopacity="1"
     objecttolerance="10"
     gridtolerance="10"
     guidetolerance="10"
     inkscape:pageopacity="0"
     inkscape:pageshadow="2"
     inkscape:window-width="1920"
     inkscape:window-height="1001"
     id="namedview1024"
     showgrid="false"
     inkscape:zoom="0.48311991"
     inkscape:cx="-319.7212"
     inkscape:cy="646.38781"
     inkscape:window-x="-9"
     inkscape:window-y="-9"
     inkscape:window-maximized="1"
     inkscape:current-layer="svg1022" />
  <g
     fill="#ffffff"
     id="g892">
    <path
       d="M385.5 846.3 c-27.6 -2.5 -53 -7 -76.1 -13.4 -25.4 -6.9 -63.6 -21.9 -81.4 -31.8 -4.7 -2.7 -11.9 -6.6 -16 -8.8 -18.7 -10.1 -44.5 -28.7 -67.5 -48.7 -47.9 -41.7 -87.9 -97.8 -111.4 -156.2 -14.1 -35.3 -21.3 -61.9 -26.8 -99.8 -2.5 -17.2 -2.7 -20.1 -2.7 -58.1 l-0.1 -40 3.3 -21 c5.5 -36.3 12.8 -63 26.4 -96.9 24.5 -61.2 66.2 -118.5 118.3 -162.2 21.9 -18.4 45.4 -34.6 66.9 -46.1 6.6 -3.6 13 -7.1 14.1 -7.8 4.6 -2.9 30.7 -13.8 47.4 -19.9 28 -10.2 53.8 -16.4 85.6 -20.7 19 -2.6 68.2 -3.7 90.2 -2 23.4 1.8 55.3 7.2 74.7 12.7 45 12.7 85 31.1 123.1 56.6 17.4 11.7 18.8 12.8 35.5 26.7 23.3 19.5 49.4 46.9 65.7 68.9 10 13.4 24.9 36.6 31.8 49.2 3.7 6.9 7.4 13.4 8.1 14.5 3 4.6 13.7 30.4 20.3 48.8 11.9 33.3 18.7 64.7 22.1 102.2 1.3 14.2 1.3 59.8 0 74 -4.2 47 -15.3 89.9 -34.5 134 -10.1 23.1 -29.8 56.5 -47.8 80.7 -19.9 26.9 -52.3 59.4 -82.2 82.4 -7.4 5.7 -36.9 25 -46 30.1 -14.5 8.1 -34.4 17.9 -45.6 22.3 -12.8 5.1 -41.8 15.1 -51.9 17.9 -17.8 4.8 -49.6 10.2 -71 12.1 -10.7 0.9 -63.4 1.1 -72.5 0.3z m86.6 -8.7 c65.5 -9.7 111.5 -26.3 167.1 -60.2 7.7 -4.7 16.7 -11 33.4 -23.6 20 -15 54.4 -49.2 70.6 -70.2 27.7 -36 44.1 -64.6 61.4 -107.3 12.6 -31.3 23.4 -78.6 26.4 -116.5 1.9 -23.6 0.9 -64.2 -2 -79.3 -0.5 -2.7 -1.4 -8.6 -2 -13 -9.1 -65.7 -38.5 -133.5 -82.5 -190.5 -12.8 -16.5 -34.5 -39.4 -53 -55.8 -54.9 -48.9 -126 -83.6 -197 -96.2 -29 -5.2 -47.4 -6.9 -71.7 -7 -16.7 0 -53.9 2.3 -55.8 3.5 -0.3 0.2 -4.4 0.9 -9 1.5 -12.9 1.8 -42.8 8.7 -58.5 13.5 -15.5 4.8 -41.6 15.1 -57.2 22.5 -11.8 5.6 -41.5 22.9 -52.1 30.4 -38.1 26.6 -74.4 61.3 -97.7 93.1 -3.2 4.4 -7.5 10.3 -9.6 13 -5 6.7 -16.9 26.1 -25.6 42 -30.6 55.8 -48.3 126 -48.3 192 0 45.9 9.1 97.3 24.8 139.5 7.5 20.1 15.5 38.1 22.9 51.5 9.1 16.5 21 36.2 24.8 41 1.7 2.2 6.5 8.7 10.7 14.5 4.2 5.8 8.4 11.4 9.5 12.5 1 1.1 5.7 6.5 10.4 12 17.7 20.5 47.4 47.6 67.4 61.5 2.7 1.9 7.9 5.6 11.5 8.1 3.6 2.6 14.3 9.2 23.9 14.9 45.5 26.9 95.7 44.4 149.5 52 23.8 3.4 32.1 3.8 61.6 3.6 24.7 -0.3 30.8 -0.7 46.1 -3z"
       id="path860" />
    <path
       d="M381.7 827.2 c-1.7 -0.3 -1.8 -1 -1.2 -5.5 0.4 -2.9 0.9 -22 1.1 -42.6 0.4 -32.3 0.2 -37.7 -1.1 -39.7 -0.8 -1.3 -1.5 -4.1 -1.5 -6.4 l0 -4 7.9 0 c4.3 0 9.3 0.3 11 0.6 2.7 0.6 3.1 1.1 3.1 3.8 0 1.8 -0.7 4.1 -1.5 5.2 -1.2 1.6 -1.4 7.9 -1.5 38.4 0 35.7 0.3 41 2.1 41 1.5 0 2.7 -4.1 6.4 -22.3 2 -9.5 4.2 -19.2 5 -21.7 0.8 -2.5 2.2 -8.5 3 -13.5 3 -16.3 6.4 -28.9 8.2 -30.2 0.9 -0.7 4 -1.3 6.8 -1.3 2.8 0 5.9 0.6 6.8 1.3 1 0.7 2.8 6.1 4.7 13.7 1.6 6.9 4.1 16.8 5.5 22 3.3 12.4 8.2 33.6 10 42.9 1 5.2 2.1 7.8 3.5 8.8 1.5 1.1 2 2.5 2 5.9 l0 4.5 -10.2 -0.3 -10.3 -0.3 -0.6 -5.5 c-0.3 -3 -1.1 -7.1 -1.7 -9 -0.6 -1.9 -3.4 -13.6 -6.2 -26 -2.8 -12.4 -5.2 -22.9 -5.4 -23.5 -0.2 -0.9 -4.7 16.5 -6.2 24.5 -0.4 1.9 -2.2 8.9 -4 15.5 -2.9 10 -3.3 13 -2.8 17.8 0.6 5.1 0.5 5.7 -1.2 5.9 -3.7 0.3 -29.9 0.3 -31.7 0z"
       id="path862" />
    <path
       d="M246.6 794.9 c-3.3 -2.6 -3.8 -9.4 -0.8 -10.3 1.3 -0.5 3.2 -4.6 6.6 -14.4 2.6 -7.5 5.6 -16 6.7 -18.9 1.2 -2.8 3.1 -8.6 4.4 -12.8 l2.4 -7.8 -12.2 11.9 c-6.7 6.5 -15.7 15.3 -20 19.6 -4.2 4.3 -8.2 7.8 -8.7 7.8 -0.6 0 -1.5 1.1 -2 2.5 -1.4 3.7 -7.5 3.5 -12.5 -0.5 -2.1 -1.6 -4.4 -3 -5.1 -3 -0.8 0 -1.4 -0.9 -1.4 -2 0 -1.4 -0.7 -2 -2.3 -2 -2.8 0 -11.7 -6.6 -11.7 -8.6 0 -0.9 -1.1 -1.4 -2.9 -1.4 -1.6 0 -5 -1.4 -7.7 -3.3 -4.4 -3 -4.9 -3.8 -5.2 -7.5 -0.3 -3.3 0 -4.1 1.7 -4.7 2 -0.6 10.7 -13.4 28.4 -41.7 16.7 -26.8 17.7 -28.5 17.7 -30.7 0 -1.7 0.6 -2.1 3.5 -2.1 5 0 15.5 5.4 15.5 8 0 1.1 0.7 2 1.5 2 0.8 0 4.4 1.4 8 3.2 6.4 3.2 6.5 3.3 6.5 7.3 -0.1 3.4 -0.6 4.3 -3.3 6 -2.2 1.4 -6.5 7.4 -13.5 18.5 -5.6 9.1 -12.9 20.6 -16.1 25.5 -3.2 5 -7.7 12.2 -10.1 16 l-4.2 7 13.8 -13.6 c7.7 -7.4 21.9 -21.1 31.6 -30.3 l17.8 -16.8 5.4 0.4 c7.3 0.6 8.6 1.8 8.6 8.2 0 4.8 -5.6 22.9 -11.9 38.1 -3.7 9.3 -16.1 45.6 -16.1 47.5 0 4 -1.1 5 -5.5 5 -2.8 0 -5.1 -0.7 -6.9 -2.1z m-48.5 -52.4 l1 -2 -1.6 2 c-0.9 1.1 -2.1 2.9 -2.6 4 l-1 2 1.6 -2 c0.9 -1.1 2.1 -2.9 2.6 -4z m10.1 -15.2 c4.6 -7 7.8 -12.5 6.1 -10.8 -0.5 0.6 -3 4.2 -5.5 8 -5.6 8.8 -6 9.5 -5.5 9.5 0.2 0 2.4 -3 4.9 -6.7z m12.9 -20.5 c1.7 -2.9 3.8 -6.3 4.7 -7.5 0.8 -1.3 1.2 -2.3 0.9 -2.3 -0.3 0 -2.3 2.8 -4.4 6.3 -5.3 8.4 -5.5 8.7 -4.9 8.7 0.2 0 1.9 -2.4 3.7 -5.2z"
       id="path864" />
    <path
       d="M602.5 784.3 c-0.6 -3.2 -8.4 -26.7 -14.5 -43.3 -9.8 -26.8 -14 -40.3 -14 -45.1 0 -4.5 0.3 -5.1 3.3 -6.9 1.7 -1.1 4.9 -2 6.9 -2 3.4 0 4.7 0.9 13.6 9.8 35 34.5 53.4 51.7 56 52.2 2.3 0.4 2.7 1 3 4.5 0.2 3.8 0 4.2 -4.8 7.8 -6.7 4.9 -12.2 5.2 -14.5 0.8 -0.8 -1.6 -1.9 -3.1 -2.4 -3.3 -1.3 -0.4 -10.5 -9.1 -26.9 -25.2 l-13.2 -13.1 2.4 7.5 c1.4 4.1 3.6 10.9 5 15 6.3 19.2 10.6 30.6 12.1 31.6 0.9 0.7 1.5 2.7 1.5 5.2 0 5.1 -2.6 7.2 -8.7 7.2 -3.9 0 -4.3 -0.3 -4.8 -2.7z"
       id="path866" />
    <path
       d="M406.5 720.3 c-33.8 -2.7 -40.1 -3.6 -59.7 -8.8 -32.3 -8.6 -60.4 -20.9 -86 -37.7 -57.1 -37.3 -98.6 -92.1 -118 -155.7 -9.5 -31.4 -13.2 -55.6 -13.2 -88.6 0 -32.5 3.6 -56.8 12.9 -87.5 19.5 -64.8 64.1 -123 122 -159.2 14.3 -9 41.4 -22.4 54 -26.8 10.7 -3.7 38.5 -11.4 47 -12.9 19.8 -3.7 47.6 -5.3 70.7 -4.1 74.6 3.7 140.7 33.3 192.9 86.5 44.3 45 71.6 101.1 79.9 164 2.6 19.2 2.8 58.6 0.5 77.5 -5.5 44.8 -22.7 90.5 -47.7 127 -19.9 29.1 -47.3 56.5 -77.3 77.2 -30.7 21.3 -72.8 38.2 -111.5 44.9 -20.8 3.6 -50.9 5.5 -66.5 4.2z m34.6 -9.7 c10.9 -0.6 32.7 -4.1 44.9 -7.2 16.3 -4.1 44.2 -14.5 59.3 -22 13.4 -6.7 41.4 -25.1 51.3 -33.7 30.7 -26.7 50.6 -50.2 68.7 -81.2 15.5 -26.8 27.9 -62.2 32.7 -93.3 4.5 -29.3 4.5 -47.7 -0.1 -81.7 -7.1 -53.6 -29.4 -102.7 -65.8 -145.3 -45.6 -53.3 -110.3 -88.2 -179.2 -96.7 -16.5 -2 -28.1 -2.2 -46.9 -0.8 -37.5 2.8 -64.6 9.5 -98.4 24.1 -58.6 25.5 -110.9 75.7 -138.7 133 -18 37.1 -26.1 67.8 -29.4 111.8 -1.5 20.7 -0.9 34 2.5 55.3 2.3 13.9 7.4 35.7 9.7 41.1 0.8 1.9 3.4 8.7 5.8 15 19.2 51.1 56.6 99 101.7 130.1 21.3 14.8 31.8 20.6 52 29 33.7 13.9 58.9 19.8 94.3 22 9.3 0.6 17.1 1.2 17.3 1.4 0.2 0.2 2.5 0.2 5.1 0 2.5 -0.3 8.4 -0.7 13.2 -0.9z"
       id="path868" />
    <path
       d="M227 599.5 c0 -22.1 1 -26.7 7.6 -34.3 7.4 -8.7 17.1 -13.8 56.9 -29.9 14.5 -5.9 20.2 -9.1 31 -17.8 15.2 -12.3 27.2 -26.6 35.1 -42 4.7 -9.1 14.8 -38 16.3 -46.9 0.6 -3.3 1.1 -11.7 1.1 -18.7 0 -12.3 0.1 -12.7 2.3 -13.3 4.1 -1.1 6.2 -0.6 14.7 3.5 14.8 7.1 33 21.2 33 25.5 0 0.7 0.4 1.4 0.9 1.6 0.4 0.2 3.4 4.8 6.6 10.3 3.1 5.5 6.2 10.5 6.8 11.2 2.2 2.2 10.2 6 15.2 7.2 2.8 0.7 5.7 1.6 6.5 1.9 0.8 0.3 3.9 0.6 6.8 0.7 l5.4 0 2.2 6.1 c6.8 18.5 21.4 37.9 40.1 52.9 10.8 8.7 16.5 11.9 31 17.8 39.8 16.1 49.5 21.2 56.9 29.9 6.6 7.6 7.6 12.2 7.6 34.3 l0 19.5 -192 0 -192 0 0 -19.5z"
       id="path870" />
    <path
       d="M296.7 374.1 c-4.5 -8.7 -6.7 -14 -6.7 -16.3 l0 -3.5 6.8 -0.7 c13.3 -1.3 43 -8.5 53.7 -13 l3.7 -1.6 -5.7 -6.2 c-11.1 -12.2 -18.2 -24.9 -22.7 -40.4 -2 -7 -2.3 -10.1 -2.3 -26.4 0 -19.9 0.7 -24.1 6.2 -37.8 4.8 -12 10.3 -20.2 20.8 -30.7 13.2 -13.2 25.2 -20.1 43.7 -25.3 9.1 -2.5 40.5 -2.5 49.6 0 9.4 2.6 18.8 6.6 26.6 11.2 7.6 4.5 21.7 17.2 26.1 23.5 2.7 4 2.8 4.4 2.2 13.4 -0.4 8.6 -4.5 24.6 -6.8 27.2 -0.5 0.5 -0.9 1.5 -0.9 2.3 0 2 -10.3 23.3 -15.7 32.5 -4.5 7.8 -11.9 16.7 -13.8 16.7 -0.6 0 -1.5 1 -2 2.2 -1.1 2.5 -16.1 13.8 -18.4 13.8 -0.8 0 -1.9 0.7 -2.5 1.5 -0.6 0.8 -8.6 5.3 -17.8 9.9 l-16.8 8.5 9.8 0.6 c5.3 0.3 22.5 0.9 38.2 1.3 l28.5 0.7 7.5 3 c10.3 4.2 11.5 6.6 11.5 22.5 0 10.8 -0.2 11.9 -3 17.4 l-3 6 -95.1 0.3 -95.1 0.2 -6.6 -12.8z"
       id="path872" />
    <path
       d="M95 663.4 c-0.6 -1.4 -1 -4.5 -1 -7 0 -3.8 0.3 -4.4 2.1 -4.4 1.2 0 6.4 -4 12.7 -9.7 20.1 -18.3 31.2 -28.7 30.9 -29 -0.2 -0.1 -6.6 1.7 -14.3 4.1 -7.6 2.3 -19.1 5.5 -25.4 7 -6.3 1.5 -12.7 3.4 -14.2 4.2 -1.4 0.8 -4.2 1.4 -6.2 1.4 -3.4 0 -3.8 -0.4 -5.6 -4.4 -1 -2.4 -2.3 -4.7 -2.9 -5 -0.6 -0.4 -1.1 -1.8 -1.1 -3 0 -1.3 -0.7 -3 -1.7 -3.7 -2.3 -2 -5.3 -8.9 -5.3 -12.6 0 -2.5 -0.5 -3.2 -2.2 -3.5 -2.6 -0.4 -6.7 -7.9 -6.8 -12.3 0 -2.2 -0.6 -3.3 -2.2 -4 -3 -1.3 -6.7 -9 -6.7 -14 -0.1 -4 0 -4.1 4.2 -5.3 2.3 -0.6 8.7 -3.7 14.2 -6.8 5.5 -3.1 15.6 -8.7 22.5 -12.4 6.9 -3.7 16.1 -9.1 20.6 -11.9 4.5 -2.8 9.5 -5.6 11.2 -6.2 1.7 -0.6 3.4 -1.9 3.7 -3 0.5 -1.5 1.6 -1.9 4.8 -1.9 4 0 4.4 0.3 8 5.8 2 3.2 3.7 6.8 3.7 7.9 0 1.1 0.7 2.7 1.6 3.4 2.4 2 7.4 11.1 7.4 13.6 0 1.2 0.4 2.3 0.8 2.5 0.5 0.2 2.6 2.6 4.6 5.5 3 4.2 3.7 5.9 3.4 9 -0.3 3.6 -0.5 3.8 -4.3 4.3 -3.8 0.5 -17.5 7.5 -44 22.5 -6 3.4 -15 8.4 -20 11 -4.9 2.7 -8.5 5 -7.9 5.2 0.6 0.2 12.9 -3 27.4 -7.2 14.6 -4.1 27 -7.5 27.8 -7.5 0.7 0 6.8 -1.6 13.5 -3.5 15.4 -4.4 19.6 -4.6 22 -0.6 0.9 1.6 1.7 4.9 1.7 7.4 0 4.3 -0.4 4.9 -6.7 11 -3.8 3.5 -9.9 9.1 -13.8 12.3 -3.8 3.1 -10.4 8.9 -14.6 12.8 -4.1 3.9 -13 12 -19.7 17.9 -6.7 6 -12.2 11.3 -12.2 11.8 0 0.5 -2 0.9 -4.5 0.9 -4 0 -4.7 -0.3 -5.5 -2.6z m-15.5 -74 c4.7 -2.5 8.5 -4.8 8.5 -5 0 -0.5 -7.4 3.2 -14 7 -7.6 4.4 -3.5 2.9 5.5 -2z m23.1 -13.1 c-0.4 -0.4 -13.6 6.6 -13.6 7.3 0 0.3 3.2 -1.2 7 -3.2 3.9 -2 6.9 -3.9 6.6 -4.1z m-1.1 -20.6 c0.6 -0.5 -3.5 1.4 -9 4.3 -5.5 2.9 -10.4 5.7 -11 6.3 -0.5 0.5 3.5 -1.4 9 -4.3 5.5 -2.9 10.5 -5.7 11 -6.3z m14 -8 c0.6 -0.5 -1.7 0.5 -5 2.3 -3.3 1.8 -6.4 3.8 -7 4.3 -0.5 0.6 1.7 -0.4 5 -2.2 3.3 -1.8 6.5 -3.8 7 -4.4z"
       id="path874" />
    <path
       d="M745.3 651.7 c-0.6 -1.3 -6 -6.6 -12 -11.7 -5.9 -5.2 -11 -9.6 -11.3 -9.9 -0.3 -0.4 -2.5 -2.4 -5 -4.5 -2.5 -2.1 -7 -6.2 -10 -9 -3 -2.8 -10.6 -9.6 -16.7 -15 -11.3 -9.7 -11.3 -9.8 -11.3 -14.3 0 -2.5 0.8 -5.8 1.7 -7.4 1.6 -2.6 2.2 -2.9 7 -2.9 3 0 10 1.4 16.5 3.3 6.2 1.9 15.8 4.4 21.3 5.7 10.1 2.3 41.4 11.1 44.9 12.5 1.2 0.5 1.7 0.5 1.3 -0.2 -0.7 -1.1 -12.5 -8.1 -24.2 -14.3 -4.4 -2.4 -16.4 -8.9 -26.6 -14.6 -12.5 -7 -19.7 -10.4 -21.8 -10.4 -3 0 -3.1 -0.2 -3.1 -4.3 0 -3.1 0.9 -5.6 3.3 -9.2 2.9 -4.5 3.6 -5 7.4 -5.3 3.4 -0.3 4.2 0 4.8 1.7 0.3 1.2 1 2.1 1.4 2.1 0.4 0 7.6 4.1 16 9 8.4 5 18.5 10.7 22.5 12.7 3.9 1.9 12.1 6.5 18.3 10 6.2 3.5 12.8 6.7 14.7 7 3.5 0.5 3.6 0.7 3.6 5.2 0 4 -1.5 8.4 -4.8 14.1 -0.5 0.8 -2.1 4 -3.7 7 -1.5 3 -3.2 6.1 -3.8 6.8 -1.3 1.7 -7.8 1.5 -10.1 -0.3 -1.1 -0.8 -3 -1.5 -4.1 -1.5 -2.1 0 -32.4 -7.9 -44.3 -11.6 -2.9 -0.9 -5.5 -1.5 -5.6 -1.3 -0.2 0.2 3.9 4.2 9.2 8.9 5.3 4.7 14.4 13.1 20.3 18.7 7.5 7.1 11.6 10.3 13.6 10.5 2.7 0.3 2.8 0.5 2.8 5.9 0 7.1 -1.5 8.9 -7 8.9 -3.4 0 -4.4 -0.4 -5.2 -2.3z"
       id="path876" />
    <path
       d="M722.7 458.3 c-0.8 -2.8 -0.1 -54.8 0.7 -56.1 0.9 -1.5 7.8 -1.6 9.2 -0.2 1.2 1.2 74.7 0.7 82.6 -0.5 4.5 -0.7 4.6 -0.6 5.2 2.2 0.6 3.3 0.9 30.2 0.4 44.8 l-0.3 10 -5 -0.3 c-2.7 -0.2 -22.1 -0.6 -42.9 -0.8 -32.8 -0.4 -38.2 -0.2 -40.2 1.1 -3.3 2.1 -9.1 2 -9.7 -0.2z m86.7 -17.9 c0.9 -0.3 1.3 -1 1 -1.5 -0.7 -1.2 -76.1 -1.2 -76.8 0 -0.3 0.4 -0.3 1.1 0.1 1.5 0.8 0.8 73.6 0.8 75.7 0z m-0.4 -18.9 c6.1 -1.9 -2.1 -2.5 -37 -2.5 -33.2 0 -40.3 0.4 -38.5 2.1 0.7 0.7 73.3 1.1 75.5 0.4z"
       id="path878" />
    <path
       d="M24.6 449.2 c-0.7 -1.2 -0.7 -27.8 0.1 -33.9 0.5 -4.2 0.6 -4.3 4.5 -4.3 4.7 0 16.8 -2.9 16.8 -4 0 -1.6 -10.5 -4.4 -15.3 -4.2 -4.3 0.3 -4.8 0.1 -5.7 -2.3 -1.1 -2.9 -1.3 -8.8 -0.4 -12.2 0.5 -1.9 1.3 -2.3 4.4 -2.3 2.1 0 4.3 0.7 5 1.5 1.3 1.6 6.6 3.7 23.3 9.5 12.4 4.2 9 4.5 36.6 -2.9 8.5 -2.3 16.9 -5 18.6 -6.1 1.8 -1.1 4.9 -2 6.9 -2 l3.6 0 0 8.3 c0 11.6 -0.4 12.7 -4.9 12.7 -4.6 0 -20.4 4.1 -19.4 5 1.6 1.4 16.9 6 20.1 6 l3.2 0 0 16 0 16 -4.1 0 c-2.2 0 -4.9 -0.4 -5.9 -1 -2.3 -1.2 -66.3 -2 -72.7 -0.8 -9.6 1.7 -14 2 -14.7 1z m86.4 -18.2 c0.8 -0.5 1.2 -1 0.9 -1 -0.3 0 -5 -1.6 -10.5 -3.6 -20.1 -7.2 -23.8 -8.4 -26.3 -8.4 -1.4 0 -7.1 1.4 -12.6 3.1 -5.5 1.6 -13.1 3.9 -17 4.9 -9.9 2.8 -12.3 3.9 -10.4 5.1 1.9 1.2 74 1.2 75.9 -0.1z"
       id="path880" />
    <path
       d="M694.6 304.1 c-2 -3.2 -3.6 -7 -3.6 -8.5 0 -1.4 -0.4 -2.6 -1 -2.6 -0.5 0 -2.5 -2.4 -4.5 -5.2 -2.6 -4 -3.5 -6.3 -3.5 -9.5 0 -4.3 0 -4.3 3.8 -4.3 2 0 5.1 -0.8 6.7 -1.8 4.2 -2.6 11 -6.4 26 -14.5 7.2 -3.8 17.1 -9.3 22 -12.2 5 -2.9 10.9 -6.2 13.2 -7.4 2.4 -1.2 5 -3.3 5.9 -4.7 1.4 -2.1 2.3 -2.5 5.7 -2.2 3.7 0.3 4.3 0.7 6.3 4.8 1.3 2.5 2.4 6.2 2.4 8.2 0 3 0.4 3.7 2.3 4 3.1 0.4 7.6 9 7.7 14.6 0 4 -0.1 4.2 -2.9 4.2 -3.3 0 -12.1 4.4 -40.3 20.4 -10.9 6.1 -22.7 12.7 -26.2 14.6 -3.6 1.9 -7 4.5 -7.5 5.7 -0.8 1.8 -1.9 2.3 -5 2.3 -3.8 0 -4.1 -0.3 -7.5 -5.9z m34.9 -31.4 c1.5 -1.4 -12.7 5.9 -15 7.7 -1.1 0.9 1.6 -0.2 6 -2.5 4.4 -2.3 8.5 -4.6 9 -5.2z m9.5 -5.3 c0 -0.2 -1.3 0.2 -3 1.1 -1.6 0.9 -3 1.8 -3 2.1 0 0.2 1.4 -0.2 3 -1.1 1.7 -0.9 3 -1.8 3 -2.1z m29 -15.9 c0 -0.3 -1.8 0.4 -4 1.5 -2.2 1.1 -4 2.3 -4 2.5 0 0.3 1.8 -0.4 4 -1.5 2.2 -1.1 4 -2.3 4 -2.5z"
       id="path882" />
    <path
       d="M139 305.9 c0 -0.6 -6.7 -8.2 -15 -16.8 l-14.9 -15.7 -17.8 -3.4 c-9.8 -1.8 -20.7 -3.8 -24.2 -4.4 l-6.3 -1 0.4 -5.6 c0.3 -3.7 1.2 -6.7 2.7 -8.8 1.9 -2.8 2.8 -3.2 6.7 -3.2 2.4 0 4.4 0.4 4.4 0.9 0 1 13.8 4.6 14.6 3.9 0.9 -1 -11.5 -11.8 -13.5 -11.8 -1.8 0 -2.1 -0.6 -2.1 -4.7 0 -3 0.8 -6 2 -8.1 1.8 -2.9 2.5 -3.3 5.7 -3 2.8 0.2 4.1 0.9 4.9 2.7 1.9 3.7 11.6 15 19.6 22.7 l7.3 7.1 9 1.8 c5 1 13.7 2.9 19.5 4.2 5.8 1.4 13.4 2.6 17 2.7 l6.5 0.1 0.3 3.2 c0.2 2.3 -0.8 5.2 -3.3 9.8 -3.4 6 -3.9 6.5 -7.1 6.5 -1.9 0 -4.7 -0.9 -6.2 -1.9 -2.5 -1.8 -13.9 -4.8 -14.8 -3.9 -0.9 0.9 10.9 12.8 13.2 13.4 2 0.5 2.4 1.2 2.4 4.6 0 2.2 -0.8 5.3 -1.7 6.9 -1.4 2.4 -2.4 2.9 -5.5 2.9 -2.1 0 -3.8 -0.5 -3.8 -1.1z"
       id="path884" />
    <path
       d="M220 195.8 c0 -1.7 -0.7 -5.4 -1.5 -8.2 -0.8 -2.8 -2.8 -9.6 -4.5 -15.1 -1.6 -5.5 -3.5 -11.7 -4.1 -13.7 -1 -3.2 -4.1 -6.1 -18.3 -17.4 -9.4 -7.5 -18.1 -14.1 -19.3 -14.7 -1.8 -0.8 -2.3 -1.9 -2.3 -4.7 0 -5.9 6.7 -11 14.6 -11 2.3 0 3.4 0.5 3.4 1.5 0 1.1 11.2 11.5 12.4 11.5 0.2 0 -0.5 -3.1 -1.6 -6.9 -1.5 -4.9 -2.6 -7.1 -3.9 -7.4 -1.4 -0.4 -1.9 -1.4 -1.9 -3.9 0 -4.2 4.3 -8.8 8.3 -8.8 2 0 2.7 -0.5 2.7 -2 0 -1.1 1.9 -3.4 4.6 -5.5 3.7 -2.7 5.6 -3.5 9 -3.5 3.8 0 4.3 0.3 4.9 2.8 0.3 1.5 4.2 7.9 8.7 14.2 4.5 6.3 10.1 14.4 12.6 18 2.5 3.6 6.8 9.7 9.7 13.5 2.9 3.9 7.4 10.3 10.1 14.3 3.3 5.1 5.8 7.8 8.1 8.7 3.2 1.4 3.4 1.7 3.1 5.7 -0.3 4.2 -0.4 4.3 -7.5 7.8 -3.9 1.9 -7.2 4.2 -7.2 5 -0.1 0.8 -2.4 3 -5.1 4.8 -3.8 2.4 -6.1 3.2 -9.5 3.2 -3.3 0 -4.5 -0.4 -4.5 -1.4 0 -0.8 -2.6 -3.5 -5.7 -5.9 -8.4 -6.3 -8.5 -6.4 -7.8 -3 1.5 6.6 3.7 12.2 5.1 12.7 0.9 0.3 1.4 2 1.4 4.6 0 3.5 -0.4 4.3 -3.2 6 -1.8 1.1 -5 2 -7 2 -3.6 0 -3.8 -0.2 -3.8 -3.2z m31.3 -32 c-1.1 -1.3 -4.2 -5.7 -6.8 -9.8 -2.6 -4.1 -8 -12 -11.9 -17.5 -4 -5.5 -10.8 -15.1 -15.1 -21.4 -4.4 -6.2 -8.1 -10.9 -8.3 -10.3 -0.3 1.1 5.9 25.7 7.6 30.4 1 2.5 10.7 11.3 27.2 24.6 7.6 6.2 11 8 7.3 4z"
       id="path886" />
    <path
       d="M593.8 185.3 c-5.1 -3.1 -5.8 -3.9 -5.8 -6.7 0 -2.7 0.7 -3.7 3.7 -5.7 2.5 -1.6 7.2 -7.5 13.8 -17.1 5.5 -8.1 15.5 -22.7 22.3 -32.4 6.9 -10.1 12.2 -18.8 12.2 -20.1 0 -2.1 0.5 -2.3 4.8 -2.3 3.9 0 5.5 0.6 9.4 3.8 6.1 4.8 6.5 8.6 1.3 12.6 -3.3 2.5 -9.2 10.8 -31.2 43.4 -5.1 7.5 -10.8 15.9 -12.8 18.7 -1.9 2.7 -3.5 5.9 -3.5 7.2 0 3.7 -7 3 -14.2 -1.4z"
       id="path888" />
    <path
       d="M380.3 129.4 c-1.7 -0.8 -1.6 -6.5 0.2 -8.8 0.8 -1.1 4.2 -10.1 7.4 -20 l6 -18.1 -1.9 -6.5 c-1 -3.6 -3.7 -12.8 -6 -20.5 -5 -16.5 -5.8 -21.4 -3.9 -22.6 1.6 -1 11.3 -1.2 15.8 -0.3 2.9 0.6 3.1 0.9 3.1 5.3 0.1 2.5 0.9 7.5 1.9 11.1 l1.8 6.4 2.1 -6.4 c1.2 -3.5 2.2 -8.5 2.2 -11.1 0 -3.7 0.4 -4.9 1.8 -5.3 2.5 -0.8 47.8 -1.7 49.7 -1 1.9 0.8 2 8.2 0.1 10.6 -1.6 2.2 -1.3 74.6 0.4 77.7 0.5 1.1 1 3.8 1 5.9 l0 4 -28.5 0.1 -28.5 0 0 -3.9 c0 -2.1 -1.2 -7.6 -2.6 -12.2 l-2.6 -8.3 -2.5 6.5 c-1.3 3.6 -2.7 9 -3.1 12 l-0.7 5.5 -6 0.2 c-3.3 0.1 -6.6 -0.1 -7.2 -0.3z m44.6 -49.1 c0.1 -23.7 -0.3 -36.4 -0.9 -36.8 -1.2 -0.8 -4.3 6 -9.5 20.9 -4.3 12.2 -4.3 12.7 0.9 29.9 1.4 4.5 3.7 12.3 5.2 17.2 2.1 7 2.9 8.5 3.5 7 0.4 -1.1 0.8 -18.3 0.8 -38.2z m19 -9.8 c0.1 -23.6 -0.3 -28.5 -2 -28.5 -1.1 0 -1.2 74.1 -0.1 76.7 1 2.5 2 -19.4 2.1 -48.2z"
       id="path890" />
  </g>
  <g
     fill="#e2e5f7"
     id="g942">
    <path
       d="M419.9 714.6 c-0.2 -0.3 -8.1 -0.9 -17.4 -1.5 -35.4 -2.2 -60.6 -8.1 -94.3 -22 -20.2 -8.4 -30.7 -14.2 -52 -29 -29.5 -20.3 -56.8 -49 -77.5 -81.4 -15.8 -24.6 -29.9 -58.4 -36.1 -86.2 -4.8 -21.5 -8.8 -57.9 -7.1 -65.4 l0.7 -3.1 116.1 0 c63.9 0 117.2 0.3 118.5 0.6 3.6 1 2.8 6.7 -3.3 25.2 -8.2 25 -12.5 33.1 -26 49.1 -12.6 14.9 -27.5 25.8 -45.3 33.1 -42.1 17.3 -51.2 22 -59.4 30.8 -8.8 9.4 -10.8 16.3 -10.8 37.2 0 12.7 0.2 14.2 2 16 2 2 3.3 2 98 2 l96 0 0 47.5 c0 42 -0.3 48.9 -2.1 47.1z"
       id="path894" />
    <path
       d="M339.5 706.5 c-3.9 -1.4 -4 -1.4 -0.5 -0.8 4.1 0.7 8.2 2.2 6 2.2 -0.8 0 -3.3 -0.7 -5.5 -1.4z"
       id="path896" />
    <path
       d="M292.3 688.5 c-18.3 -8.6 -44.9 -26.1 -60.6 -39.9 -36.8 -32.1 -63.6 -70.2 -80.9 -115.1 -6.6 -17 -12.6 -37.6 -10.4 -35.4 0.3 0.3 2.7 7.9 5.5 17 13.9 46.1 39.5 87.5 75.5 122.1 20.6 19.8 41.7 34.8 68.1 48.5 15.5 8 17.1 9.6 2.8 2.8z"
       id="path898" />
    <path
       d="M138 490.5 c-0.7 -3.6 -1 -6.8 -0.8 -7 0.2 -0.3 1 2.5 1.7 6.1 0.8 3.6 1.1 6.7 0.8 7 -0.2 0.3 -1 -2.5 -1.7 -6.1z"
       id="path900" />
    <path
       d="M133.3 456.5 c0 -2.7 0.2 -3.8 0.4 -2.2 0.2 1.5 0.2 3.7 0 5 -0.2 1.2 -0.4 0 -0.4 -2.8z"
       id="path902" />
    <path
       d="M132.3 441 c0 -3 0.2 -4.3 0.4 -2.7 0.2 1.5 0.2 3.9 0 5.5 -0.2 1.5 -0.4 0.2 -0.4 -2.8z"
       id="path904" />
    <path
       d="M464.6 430.3 c-1.4 -4.9 -1.7 -22 -0.6 -32.1 l1.3 -11.2 33.7 0 c30.8 0 33.8 -0.1 35.2 -1.7 0.9 -1 4.6 -7.8 8.3 -15.2 6.3 -12.7 6.5 -13.4 4.9 -15.2 -1.2 -1.3 -3.1 -1.9 -5.9 -1.9 -7 0 -25.9 -3.9 -42.5 -8.7 -4.7 -1.3 -9.3 -2.6 -10.2 -2.9 -1.2 -0.4 -1.8 -1.5 -1.8 -3.7 0 -2.4 1.3 -4.7 5 -9.1 12.3 -14.3 20.2 -30.4 23.1 -47.1 1.7 -9.6 0.6 -30 -2 -40 -10.3 -38.9 -47.1 -69 -88.1 -72.1 l-9 -0.7 0 -11.8 0 -11.8 3.6 -0.7 c4.3 -0.8 20.2 0.2 36.9 2.2 68.2 8.3 133.2 43.5 178.6 96.6 30.3 35.5 50.7 75.3 61.3 119.8 3.1 13 6.3 35.8 7.1 51 0.3 6.3 0.8 13 1.1 14.8 l0.5 3.2 -120 0 c-113.4 0 -120 -0.1 -120.5 -1.7z"
       id="path906" />
    <path
       d="M408 384.6 c0 -1.7 4.2 -2.8 7.5 -2 4.6 1.1 3 3.4 -2.5 3.4 -3.6 0 -5 -0.4 -5 -1.4z"
       id="path908" />
    <path
       d="M492.4 379.3 c0.1 -1.6 3 -5.3 4.1 -5.3 0.3 0 0.5 1.6 0.5 3.5 0 3 -0.3 3.5 -2.4 3.5 -1.6 0 -2.3 -0.5 -2.2 -1.7z"
       id="path910" />
    <path
       d="M495 351.5 c0 -0.8 -0.5 -1.5 -1.2 -1.5 -0.6 0 -0.8 -0.3 -0.5 -0.7 0.4 -0.3 0.2 -1.2 -0.4 -2 -0.9 -1 -0.6 -1.3 1.5 -1.3 2.3 0 2.6 0.4 2.6 3.5 0 1.9 -0.4 3.5 -1 3.5 -0.5 0 -1 -0.7 -1 -1.5z"
       id="path912" />
    <path
       d="M419.3 338.8 c-4.7 -1.5 -4.3 -3.8 0.7 -3.8 3.6 0 4 0.3 4 2.5 0 2.7 -0.1 2.8 -4.7 1.3z"
       id="path914" />
    <path
       d="M380 337 c0 -0.5 1.3 -0.8 3 -0.7 3.9 0.3 3.9 1.7 0 1.7 -1.6 0 -3 -0.4 -3 -1z"
       id="path916" />
    <path
       d="M434.3 314.9 c0.9 -0.6 1.5 -1.4 1.2 -1.8 -0.2 -0.5 0.9 -1.1 2.5 -1.3 2.6 -0.4 3 -0.1 3 1.9 0 2 -0.5 2.3 -4.2 2.3 -3.5 -0.1 -3.9 -0.3 -2.5 -1.1z"
       id="path918" />
    <path
       d="M456.3 298.6 c0.7 -1.4 2 -2.7 3.1 -3 1 -0.2 1.6 -0.8 1.3 -1.3 -0.3 -0.5 0.6 -1.3 1.9 -2 2.2 -1 2.4 -0.9 2.4 1.8 0 1.8 -0.5 2.9 -1.4 2.9 -0.7 0 -1.6 0.9 -1.9 2 -0.4 1.4 -1.4 2 -3.5 2 -2.8 0 -2.9 -0.1 -1.9 -2.4z"
       id="path920" />
    <path
       d="M647.9 253.3 c-2.3 -3.2 -3.5 -5.2 -2.5 -4.4 1.8 1.5 8 10.1 7.3 10.1 -0.3 0 -2.4 -2.6 -4.8 -5.7z"
       id="path922" />
    <path
       d="M487.8 247.3 c-0.3 -1.6 2.3 -5.3 3.7 -5.3 0.3 0 0.5 1.6 0.5 3.5 0 2.8 -0.4 3.5 -1.9 3.5 -1.1 0 -2.1 -0.8 -2.3 -1.7z"
       id="path924" />
    <path
       d="M490.8 239.3 c-0.3 -1.8 1.9 -5.3 3.4 -5.3 0.5 0 0.8 1.6 0.8 3.5 0 2.8 -0.4 3.5 -1.9 3.5 -1.1 0 -2.1 -0.8 -2.3 -1.7z"
       id="path926" />
    <path
       d="M629.4 231.8 c-8.6 -9 -12.4 -13.7 -6.5 -8.3 4.3 4 14.6 15.5 13.9 15.5 -0.2 0 -3.5 -3.3 -7.4 -7.2z"
       id="path928" />
    <path
       d="M614.9 217.4 c-3.3 -3.5 -23.7 -19.8 -32.4 -25.8 -7 -4.9 -10.5 -7.7 -7.5 -6.1 4.7 2.6 17 11.4 25.6 18.4 9.1 7.3 18.5 16.1 17.3 16.1 -0.3 0 -1.6 -1.2 -3 -2.6z"
       id="path930" />
    <path
       d="M559.5 177.4 c-13 -7.4 -16 -9.7 -6.2 -4.8 5.8 2.9 19.7 11.4 19.7 12 0 0.6 0.6 0.9 -13.5 -7.2z"
       id="path932" />
    <path
       d="M530.8 163.7 c-7 -2.8 -12.6 -5.3 -12.4 -5.5 0.8 -0.7 25.6 9.3 25.6 10.3 0 0.6 1.7 1.2 -13.2 -4.8z"
       id="path934" />
    <path
       d="M502.3 153.7 c-7.2 -2.3 -13 -4.3 -12.8 -4.5 0.6 -0.6 22.4 5.7 25.3 7.3 4.2 2.3 1.6 1.7 -12.5 -2.8z"
       id="path936" />
    <path
       d="M473.5 146.5 c-3.3 -0.7 -5.1 -1.3 -4 -1.3 1.1 -0.1 4.9 0.5 8.5 1.2 3.6 0.8 5.4 1.4 4 1.4 -1.4 0 -5.2 -0.6 -8.5 -1.3z"
       id="path938" />
    <path
       d="M425.8 141.3 c2.3 -0.2 6.1 -0.2 8.5 0 2.3 0.2 0.4 0.4 -4.3 0.4 -4.7 0 -6.6 -0.2 -4.2 -0.4z"
       id="path940" />
  </g>
  <g
     fill="#d5daf3"
     id="g990">
    <path
       d="M424.3 717.3 c1.5 -0.2 3.9 -0.2 5.5 0 1.5 0.2 0.2 0.4 -2.8 0.4 -3 0 -4.3 -0.2 -2.7 -0.4z"
       id="path944" />
    <path
       d="M419.7 714.3 c-0.4 -0.3 -0.7 -21 -0.7 -46 0 -39.6 -0.2 -45.3 -1.5 -45.3 -0.8 0 -1.5 -0.7 -1.5 -1.5 0 -1.3 11.3 -1.5 96 -1.5 l96 0 2.1 -2.1 c2 -2 2.1 -2.9 1.7 -19.2 -0.3 -16.1 -0.5 -17.6 -3 -22.9 -1.5 -3.2 -4.8 -8 -7.4 -10.8 -8.5 -9.1 -13 -11.5 -60.4 -31.3 -10.1 -4.3 -15.7 -7.4 -22.4 -12.4 -16.7 -12.5 -31.3 -29.4 -38.8 -44.8 -8.3 -17.2 -17.5 -50.5 -13.9 -50.5 0.6 0 1.4 0.7 1.7 1.5 0.5 1.3 14.7 1.5 119.2 1.5 l118.5 0 -0.7 13.3 c-3.4 65.9 -26.4 123.4 -69.1 173.3 -10 11.5 -19.4 20.7 -35.9 35.1 -9.9 8.6 -37.9 27 -51.3 33.7 -7.9 3.9 -28.5 12.3 -39.8 16.2 -21.3 7.3 -45.4 11.9 -70.5 13.5 -17.8 1.1 -17.5 1 -18.3 0.2z"
       id="path946" />
    <path
       d="M489.5 709.5 c0.6 -0.2 8 -2.7 16.5 -5.4 8.5 -2.7 16.4 -5.2 17.5 -5.6 1.6 -0.5 1.7 -0.5 0.5 0.4 -1.9 1.4 -27.3 9.7 -32 10.5 -1.9 0.3 -3 0.4 -2.5 0.1z"
       id="path948" />
    <path
       d="M538 692.5 c1.4 -0.8 3 -1.4 3.5 -1.4 0.6 0 -0.1 0.6 -1.5 1.4 -1.4 0.8 -2.9 1.4 -3.5 1.4 -0.5 0 0.1 -0.6 1.5 -1.4z"
       id="path950" />
    <path
       d="M550.6 686.6 c9.9 -5.3 21.5 -12 27.4 -15.8 2.5 -1.6 3.4 -2 2.1 -0.9 -4.7 4.2 -34.4 21.1 -36.8 21.1 -0.4 0 2.8 -2 7.3 -4.4z"
       id="path952" />
    <path
       d="M585.4 665.8 c21.8 -17.1 29.5 -23.8 40.7 -35 8.9 -8.9 11.1 -10.9 6.8 -5.9 -5.7 6.6 -15.8 16.2 -30.4 28.9 -2.7 2.3 -8.3 6.5 -12.5 9.3 -4.1 2.7 -6.2 4 -4.6 2.7z"
       id="path954" />
    <path
       d="M648.4 605.3 c2.6 -3.5 4.9 -6.3 5.2 -6.3 0.9 0 -5.3 8.4 -7.7 10.5 -1.2 1.1 -0.1 -0.8 2.5 -4.2z"
       id="path956" />
    <path
       d="M673.5 567 c0.9 -1.6 1.8 -3 2.1 -3 0.2 0 -0.2 1.4 -1.1 3 -0.9 1.7 -1.8 3 -2.1 3 -0.2 0 0.2 -1.3 1.1 -3z"
       id="path958" />
    <path
       d="M677.1 560.5 c0 -0.5 1.1 -3 2.4 -5.5 1.3 -2.5 2.4 -4 2.4 -3.5 0 0.6 -1.1 3 -2.4 5.5 -1.3 2.5 -2.4 4.1 -2.4 3.5z"
       id="path960" />
    <path
       d="M370 431.6 c0 -0.7 -1 -1.6 -2.2 -2 -1.3 -0.3 -53.9 -0.6 -117 -0.6 l-114.8 0 0 -4.7 c0.1 -15.8 4 -45 8.7 -64.8 3.4 -14.4 12.5 -38.8 21.2 -56.7 27.8 -57.3 80.1 -107.5 138.7 -133 25.4 -11 45 -16.9 69.4 -20.8 10.6 -1.7 33.2 -3.7 43.8 -4 0.9 0 1.2 2.8 1.2 10.5 0 8.7 0.3 10.5 1.5 10.5 0.8 0 1.5 0.6 1.5 1.4 0 0.9 -2.4 1.5 -9 2 -34.4 2.6 -65.2 23.3 -80.3 54 -11.5 23.3 -13.5 46.1 -6.1 69.8 4.3 13.8 14.4 30.9 22.8 38.7 1.7 1.7 2.6 3.5 2.6 5.6 0 3.1 -0.2 3.3 -8.2 5.8 -17.1 5.4 -38 9.7 -47 9.7 -4.2 0 -7.8 1.7 -7.8 3.7 0 0.9 14 27.5 15.2 29 0.8 1 9.4 1.3 34.6 1.5 l33.6 0.3 1.4 9.5 c1.3 9 1 27.9 -0.4 33.7 -0.7 2.5 -3.4 3.2 -3.4 0.9z"
       id="path962" />
    <path
       d="M531.3 352.3 c-2.4 -0.3 -3.3 -0.9 -3.3 -2.2 0 -1.8 3.6 -3.6 4.2 -2.1 0.5 1.1 7.8 2 7.8 0.9 0 -0.5 0.7 -0.9 1.5 -0.9 0.8 0 1.5 0.5 1.5 1 0 0.6 0.7 1 1.5 1 0.8 0 1.5 0.7 1.5 1.5 0 1.2 -1.2 1.5 -5.7 1.3 -3.2 0 -7.3 -0.3 -9 -0.5z"
       id="path964" />
    <path
       d="M514.8 348.8 c-3.6 -0.8 -4.8 -1.5 -4.8 -2.8 0 -1 0.9 -2 2 -2.3 1.1 -0.3 2 -0.1 2 0.5 0 0.6 0.9 0.8 2 0.5 1.1 -0.3 2 -0.1 2 0.5 0 0.6 1.1 0.8 2.5 0.6 1.4 -0.3 2.5 -0.1 2.5 0.3 0 0.5 0.7 0.9 1.5 0.9 0.8 0 1.5 0.7 1.5 1.5 0 1.7 -3.8 1.8 -11.2 0.3z"
       id="path966" />
    <path
       d="M144.2 347 c0 -0.8 0.6 -3.1 1.3 -5 0.7 -1.9 1.3 -2.8 1.3 -2 0 0.8 -0.6 3.1 -1.3 5 -0.7 1.9 -1.3 2.8 -1.3 2z"
       id="path968" />
    <path
       d="M502 344.1 c0 -1 0.9 -2.1 2 -2.4 1.1 -0.3 2 -0.1 2 0.4 0 0.5 0.7 0.9 1.5 0.9 0.8 0 1.5 0.7 1.5 1.5 0 1 -1.1 1.5 -3.5 1.5 -2.8 0 -3.5 -0.4 -3.5 -1.9z"
       id="path970" />
    <path
       d="M490.3 342.3 c-1.9 -0.4 -2.3 -1.1 -2.3 -4.4 0 -3.6 0.2 -3.9 2.7 -3.9 2.6 0 2.6 0 0.7 2.2 -1 1.2 -1.3 1.8 -0.6 1.4 0.7 -0.4 1.2 -0.2 1.2 0.5 0 0.6 0.8 0.9 2 0.6 1.1 -0.3 2 -0.1 2 0.4 0 0.5 0.7 0.9 1.5 0.9 0.8 0 1.5 0.7 1.5 1.5 0 1.5 -3.5 1.8 -8.7 0.8z"
       id="path972" />
    <path
       d="M164.6 295.8 c3.5 -6.9 10.5 -18.8 11.1 -18.8 0.3 0 -0.6 1.9 -2 4.3 -1.3 2.3 -4.3 7.7 -6.7 12 -4.7 8.7 -6.4 10.4 -2.4 2.5z"
       id="path974" />
    <path
       d="M516 272.5 c0 -3.7 2.4 -5 3.2 -1.7 0.6 2.7 -0.2 5.2 -1.8 5.2 -0.9 0 -1.4 -1.1 -1.4 -3.5z"
       id="path976" />
    <path
       d="M183 265.5 c6 -8.8 19.6 -25.9 23.5 -29.5 1.5 -1.4 -1.2 2.2 -6 8 -4.8 5.8 -11.6 14.7 -15.2 19.8 -3.5 5 -6.7 9.2 -6.9 9.2 -0.3 0 1.8 -3.4 4.6 -7.5z"
       id="path978" />
    <path
       d="M213 229.4 c0 -0.5 2.5 -3.4 5.5 -6.4 3 -3 5.5 -5.1 5.5 -4.7 0 0.5 -2.5 3.3 -5.5 6.4 -3 3.1 -5.5 5.2 -5.5 4.7z"
       id="path980" />
    <path
       d="M225 217.7 c0 -0.2 1.5 -1.6 3.3 -3.3 l3.2 -2.9 -2.9 3.3 c-2.8 3 -3.6 3.7 -3.6 2.9z"
       id="path982" />
    <path
       d="M238 206 c2.5 -2.3 6.5 -5.6 9 -7.2 4 -2.6 4.2 -2.6 1.5 -0.4 -1.6 1.5 -5.7 4.7 -9 7.2 l-6 4.6 4.5 -4.2z"
       id="path984" />
    <path
       d="M259 190.7 c0 -0.6 14.1 -9.7 18 -11.7 5.5 -2.8 -0.3 1.1 -17.2 11.7 -0.5 0.2 -0.8 0.2 -0.8 0z"
       id="path986" />
    <path
       d="M280 177.5 c0 -0.6 15.6 -8.5 16.7 -8.5 0.7 0.1 -15.7 9 -16.4 9 -0.2 0 -0.3 -0.2 -0.3 -0.5z"
       id="path988" />
  </g>
  <g
     fill="#b3b3b3"
     id="g1008">
    <path
       d="M249 555.5 c0 -2.2 0.4 -2.5 3.5 -2.5 4.3 0 4.5 1.4 0.5 3.5 -3.8 2 -4 1.9 -4 -1z"
       id="path992" />
    <path
       d="M584.8 556.4 c-3.8 -2 -3.5 -3.4 0.7 -3.4 3.1 0 3.5 0.3 3.5 2.5 0 2.9 -0.5 3 -4.2 0.9z"
       id="path994" />
    <path
       d="M359 474.5 c0 -3.1 0.3 -3.5 2.5 -3.5 2.9 0 3 0.2 1 4 -2.1 4 -3.5 3.8 -3.5 -0.5z"
       id="path996" />
    <path
       d="M475.5 475 c-2 -3.8 -1.9 -4 1 -4 2.2 0 2.5 0.4 2.5 3.5 0 4.3 -1.4 4.5 -3.5 0.5z"
       id="path998" />
    <path
       d="M470.8 463.3 c-0.2 -1.4 -1.3 -1.6 -6 -1.4 -3.1 0.1 -5.9 -0.2 -6.2 -0.8 -0.4 -0.6 -1.3 -0.8 -2.1 -0.4 -0.9 0.3 -2.2 0 -3 -0.7 -0.8 -0.7 -1.5 -0.9 -1.5 -0.5 0 0.4 -0.7 0.2 -1.5 -0.5 -0.8 -0.7 -1.5 -0.9 -1.5 -0.6 0 0.8 -11 -5 -12.7 -6.7 -0.6 -0.7 -3.7 -5.7 -6.8 -11.2 -3.2 -5.5 -6.2 -10.1 -6.6 -10.3 -0.5 -0.2 -0.9 -0.9 -0.9 -1.6 0 -4.2 -18.2 -18.4 -32.5 -25.3 -8.1 -3.8 -11.5 -4.4 -11.5 -1.7 0 2 -2.8 1.7 -3.4 -0.3 -0.2 -1 -0.8 -5.2 -1.1 -9.4 l-0.7 -7.6 9.3 -0.6 c11.8 -0.9 77.6 -0.9 80.8 0 2.2 0.6 2.3 0.9 1.7 5.7 -1.5 12.1 -1.8 28.7 -0.7 36.4 0.7 4.4 3 13.4 5.1 19.8 3.9 11.6 4.9 17.7 3.1 18.9 -0.5 0.3 -1.1 -0.2 -1.3 -1.2z"
       id="path1000" />
    <path
       d="M374 426.5 c0 -2.8 0.4 -3.5 2 -3.5 2 0 2.6 2.2 1.4 5.4 -1.2 3 -3.4 1.8 -3.4 -1.9z"
       id="path1002" />
    <path
       d="M488 385.6 c0 -0.8 0.7 -1.7 1.5 -2 2.6 -1 6.7 -11.3 7.2 -18 0.6 -7.5 -1.8 -17 -4.7 -18.9 -6.6 -4.1 2.4 -3.5 21.5 1.3 9.5 2.4 19.9 4.4 25.5 4.8 l9.5 0.7 0.3 3 c0.1 2.1 -1.9 7.2 -6.8 16.8 l-7.1 13.7 -9.4 0 c-5.7 0 -9.5 -0.4 -9.5 -1 0 -0.6 -4.2 -1 -10.5 -1 -6.3 0 -10.5 0.4 -10.5 1 0 0.6 -1.6 1 -3.5 1 -2.3 0 -3.5 -0.5 -3.5 -1.4z"
       id="path1004" />
    <path
       d="M478 341 c-0.9 -0.6 -12.9 -1 -28.7 -1 -17 0 -27.4 -0.4 -27.8 -1 -0.4 -0.6 -8.5 -1 -20.8 -1.1 l-20.2 0 8.3 -2.5 c11.1 -3.2 18.3 -6.3 33.2 -14.1 26.6 -13.9 40.8 -25.7 50.2 -41.8 15.8 -26.9 26.9 -59.8 22.9 -67.3 -1.1 -2 -0.9 -2.2 1.7 -2.2 2.3 0 3.3 0.9 6.1 5.5 4.5 7.3 7.6 15.5 10.2 26.1 1.8 7.2 2.2 12 2.3 24.9 0 14.3 -0.3 17 -2.7 25.7 -2.7 10.1 -7.7 21 -13.1 28.8 -3.1 4.6 -18.4 21 -19.5 21 -0.3 0 -1.3 -0.5 -2.1 -1z"
       id="path1006" />
  </g>
  <g
     fill="#9b9b9b"
     id="g1012">
    <path
       d="M489.2 385.3 c0.2 -1 1 -1.7 1.6 -1.5 0.7 0.1 1.2 -0.2 1.2 -0.8 0 -0.6 5.2 -1 13.5 -1 8.3 0 13.5 0.4 13.5 1 0 0.6 0.7 1 1.5 1 0.8 0 1.5 0.7 1.5 1.5 0 1.3 -2.5 1.5 -16.6 1.5 -15.2 0 -16.5 -0.1 -16.2 -1.7z"
       id="path1010" />
  </g>
  <g
     fill="#6d6d6d"
     id="g1016">
    <path
       d="M225 621 c-1.8 -1.8 -2 -3.3 -2 -19 0 -24.1 1.7 -30.5 10.8 -40.2 8.2 -8.8 17.3 -13.5 59.4 -30.8 17.8 -7.3 33 -18.4 45.6 -33.4 13.3 -15.8 17.5 -23.9 25.7 -48.6 6.7 -20.6 8.4 -33.7 6.3 -49 l-1.4 -9.5 -33.6 -0.3 c-25.2 -0.2 -33.8 -0.5 -34.6 -1.5 -0.5 -0.6 -4.2 -7.3 -8.1 -14.8 -9.7 -18.6 -9.6 -23.9 0.7 -23.9 9 0 29.9 -4.3 46.9 -9.7 l8.2 -2.6 -4.8 -5.2 c-17.4 -19.2 -26.3 -45.2 -24.8 -73 2 -35.9 22.4 -67.2 54.1 -82.8 19.4 -9.6 39.1 -12.7 61.1 -9.6 37.8 5.2 71.8 35 81.6 71.4 2.7 10 3.8 35.7 2 46.1 -3 17.2 -10.8 32.6 -25.1 49.6 -2.3 2.7 -2.8 3.9 -1.8 4.2 14.1 4.8 44.9 11.6 52.4 11.6 6 0 8.4 2 8.4 6.8 0 3.2 -11.6 27.9 -14.8 31.5 -1.4 1.6 -4.4 1.7 -35.3 1.7 l-33.7 0 -0.9 8.3 c-2.2 18.4 -0.1 32.4 8.2 56.5 5.7 16.7 9.7 24.7 17.6 35.2 14.6 19.3 30.7 32.2 50.9 40.7 47.4 19.8 51.9 22.2 60.4 31.3 2.6 2.8 5.9 7.6 7.4 10.8 2.6 5.5 2.7 6.4 3 25.9 0.4 19.3 0.3 20.2 -1.7 22.2 l-2.1 2.1 -192 0 c-190.7 0 -192 0 -194 -2z m383 -21.5 c0 -18.8 -1.2 -23.9 -7.6 -31.4 -7.4 -8.6 -15.6 -13 -54.4 -28.8 -17.1 -6.9 -22.4 -9.9 -33.5 -18.8 -15.2 -12.3 -26.7 -26 -34.8 -41.5 -5.1 -9.8 -15.1 -39.4 -16.7 -49 -1.3 -8.6 -1.3 -29.1 0.1 -38.5 l1.1 -7.5 14.2 0 c7.7 -0.1 23.4 0 34.8 0 l20.8 0.1 6.5 -13.1 c3.6 -7.1 6.5 -13.3 6.5 -13.7 0 -0.4 -2.1 -0.8 -4.7 -0.9 -8.3 -0.5 -13.4 -1.4 -30.3 -5.5 -16 -3.9 -33 -9.5 -33 -10.8 0 -0.4 3 -3.6 6.6 -7.1 13.4 -13.3 21.5 -26.8 26.1 -43.8 2.2 -8.3 2.6 -11.6 2.5 -23.2 0 -16.2 -2.8 -28.8 -9.2 -41.5 -4.7 -9.6 -7.5 -13.2 -19.5 -25 -12.4 -12.2 -24.8 -19.3 -42.7 -24.2 -8.9 -2.5 -34.7 -2.5 -43.6 0 -18.5 5 -30.5 12 -43.7 25.2 -10.5 10.5 -16 18.7 -20.8 30.7 -5.3 13.1 -6.2 18.2 -6.2 34.8 0 13.2 0.3 16.7 2.3 23.4 4.9 17.1 12.8 30.4 25.4 42.9 l7.9 7.7 -4.5 2 c-12.2 5.2 -38.9 12.1 -54.2 14.1 -5.5 0.7 -10.1 1.3 -10.2 1.5 -0.2 0.1 2.7 6.1 6.4 13.3 l6.8 13.1 34.8 0 c27.2 0 34.8 0.3 34.8 1.3 0 0.6 0.5 4.6 1 8.7 1 7.4 1.4 28.6 0.6 32.5 -0.2 1.1 -0.6 4.1 -1 6.6 -1 7.1 -11.8 37.5 -16.5 46.4 -8 15.1 -19.6 28.9 -34.6 41 -11.1 8.9 -16.4 11.9 -33.5 18.8 -38.8 15.8 -47 20.2 -54.4 28.8 -6.4 7.5 -7.6 12.6 -7.6 31.4 l0 16.5 189 0 189 0 0 -16.5z"
       id="path1014" />
  </g>
  <g
     fill="#181818"
     id="g1020">
    <path
       d="M403.5 843.9 c-33.6 -1.6 -60.3 -5.8 -93.5 -14.4 -18.5 -4.8 -48.3 -15.9 -69.6 -26 -12.3 -5.8 -42.2 -23.1 -52.4 -30.4 -3.6 -2.5 -8.8 -6.2 -11.5 -8.1 -20 -13.9 -49.7 -41 -67.4 -61.5 -4.7 -5.5 -9.4 -10.9 -10.4 -12 -1.1 -1.1 -5.3 -6.7 -9.5 -12.5 -4.2 -5.8 -9 -12.3 -10.7 -14.5 -8.3 -10.6 -29.3 -48 -37 -66 -18.2 -42 -28.6 -81.5 -33.5 -126 -8.7 -80.7 8.5 -169.2 46.3 -238 8.7 -15.9 20.6 -35.3 25.6 -42 2.1 -2.7 6.4 -8.6 9.6 -13 23.3 -31.8 59.6 -66.5 97.7 -93.1 10.6 -7.5 40.3 -24.8 52.1 -30.4 15.6 -7.4 41.7 -17.7 57.2 -22.5 12.9 -3.9 44.5 -11.5 54 -12.9 2.2 -0.3 8.5 -1.2 14 -2.1 15.6 -2.3 18.2 -2.5 48.5 -3.1 28.4 -0.6 38.3 -0.1 62 3 32 4.3 63.6 12 89.5 21.9 66.8 25.2 121.6 63.3 169.6 117.7 16.7 19 30.6 38.4 44.6 62.4 18.1 30.8 31 60.8 40.4 93.6 14.1 49.6 19.3 106.3 14.4 156 -1 9.8 -5.1 35 -7.9 48.7 -10.8 52.6 -35.9 108.8 -68.2 152.9 -19.6 26.8 -39.2 48.3 -63.8 70 -13 11.5 -15.1 13.1 -32.9 26.3 -24.5 18.1 -59.4 36.6 -95.7 50.8 -31.1 12.1 -86.2 23.5 -120 24.9 -6.9 0.2 -15.9 0.6 -20 0.7 -4.1 0.2 -13.8 0 -21.5 -0.4z m-7.4 -22.4 c-0.3 -1.1 -0.6 -20.3 -0.8 -42.7 -0.3 -35.7 -0.2 -41.1 1.2 -43.2 1.5 -2.3 1.5 -2.4 -1.6 -3 -4.9 -1 -12.9 -0.7 -12.9 0.4 0 0.6 0.7 2.1 1.5 3.4 1.3 2 1.5 7.9 1.2 42.7 -0.1 22.2 -0.6 41.4 -1.1 42.6 -1 2.6 0.6 3 7.9 2.3 4.4 -0.4 4.9 -0.8 4.6 -2.5z m13.5 2.9 c1.9 -0.5 2 -0.9 1.2 -3.2 -1 -2.8 -0.6 -5.1 5.4 -28.2 2.8 -10.4 7.1 -29.2 8.8 -38.2 2 -10.3 2.1 -10.1 10.6 27.2 3 13.5 6.4 27.5 7.5 31.1 1 3.7 1.8 7.7 1.7 9 -0.3 2.3 0 2.4 7 2.7 5.8 0.2 7.2 0 7.2 -1.2 0 -0.8 -0.9 -2.1 -2 -2.9 -1.4 -1 -2.5 -3.6 -3.5 -8.8 -1.8 -9.3 -6.7 -30.5 -10 -42.9 -1.4 -5.2 -3.9 -15.1 -5.5 -22 -3.1 -12.7 -4.4 -15 -8.5 -15 -1.2 0 -2.9 0.6 -3.8 1.3 -1.8 1.3 -5.2 13.9 -8.2 30.2 -0.8 5 -2.2 11 -3 13.5 -0.8 2.5 -3.1 12.4 -5 22 -2 9.6 -4.4 19.1 -5.5 21.2 -1 2 -1.6 3.9 -1.3 4.2 0.8 0.8 4.1 0.8 6.9 0z m-154.2 -32 c0.3 -0.9 0.6 -2.4 0.6 -3.4 0 -1.9 12.4 -38.2 16.1 -47.5 4 -9.8 11.9 -33 11.9 -35.1 0 -2.6 -1.5 -4 -5.3 -4.9 -2.5 -0.7 -4.2 0.7 -20.5 16.1 -9.7 9.2 -24 23 -31.7 30.5 -9.1 8.9 -14.9 13.9 -16.5 14.1 -2.6 0.3 -4.2 3.8 -1.7 3.8 0.8 0 3.1 1.4 5.2 3 4.6 3.6 5.3 3.7 6.5 0.5 0.5 -1.4 1.4 -2.5 1.9 -2.5 0.6 0 4.3 -3.3 8.3 -7.3 4 -4 15.2 -15 24.9 -24.5 16.3 -15.8 21.5 -20.1 19 -15.4 -0.5 0.9 -3.2 8.5 -5.9 16.7 -2.8 8.3 -7.6 22.2 -10.8 31 -3.1 8.8 -5.8 16.8 -6.1 17.7 -0.3 1 -1.4 2 -2.4 2.3 -2.6 0.8 -2.4 2 0.7 4.4 3.2 2.5 5 2.7 5.8 0.5z m355.4 -10 c2.6 -1.8 2.8 -3.2 0.7 -4.8 -1.6 -1.2 -5.6 -11.9 -15 -40.1 -2.9 -8.8 -6.4 -19 -7.9 -22.8 -1.4 -3.7 -2.6 -7 -2.6 -7.3 0 -1.3 5.6 3.8 22.9 20.8 10.2 10.1 21.4 20.8 24.7 23.9 3.4 3.1 6.7 6.5 7.3 7.7 1.6 2.9 2.3 2.8 7.8 -1.4 5.5 -4.2 6 -5.7 2.1 -6.4 -2.6 -0.5 -21.1 -17.8 -56 -52.2 -5.4 -5.4 -10.1 -9.8 -10.6 -9.8 -2 0 -7.2 4.2 -7.2 5.9 0 1.9 6.8 22.4 14 42.1 9.7 26.6 14.2 39.6 14.5 42 0.1 1.4 0.3 2.8 0.4 3.3 0.2 1.2 2.5 0.8 4.9 -0.9z m-404.8 -23.1 c0 -2.6 3.9 -9.5 15.1 -26.8 3.2 -4.9 10.5 -16.4 16.1 -25.5 7 -11.1 11.3 -17.1 13.5 -18.5 1.8 -1.1 3.2 -2.5 3.3 -3 0 -0.6 -2.9 -2.5 -6.5 -4.3 -6.4 -3.2 -6.5 -3.2 -6.5 -0.9 0 1.2 -1.6 4.5 -3.6 7.2 -2 2.8 -4.7 7.2 -6 9.8 -5.6 10.8 -32.1 51.7 -35.6 54.8 l-2.9 2.6 4.7 3.6 c5.7 4.5 8.4 4.8 8.4 1z m-16 -10.1 c0 -1.8 3.1 -7.6 8.6 -16.2 4.7 -7.4 10.3 -16.2 12.4 -19.5 18.9 -30 22.7 -35.4 24.8 -36 3.8 -1 2.4 -3.3 -3.8 -6.5 -3.3 -1.6 -6.2 -3 -6.5 -3 -0.3 0 -0.5 1 -0.5 2.1 0 2.2 -1 3.9 -17.7 30.7 -17.7 28.3 -26.4 41.1 -28.4 41.7 -2.8 0.9 -2 2.4 3.5 6.2 5.9 4.1 7.6 4.2 7.6 0.5z m244 -32.2 c34.3 -1.7 66.6 -9.1 100.2 -22.9 47.1 -19.5 93.9 -58.1 124.6 -103.1 25 -36.5 42.2 -82.2 47.7 -127 2.2 -18.6 2 -52.5 -0.5 -71.5 -5.9 -44.7 -22.5 -88.4 -47.2 -124.5 -20.2 -29.5 -48.2 -57.3 -78.8 -78.1 -41.2 -28.1 -93.7 -45.3 -145.5 -47.8 -9.9 -0.5 -20.5 -0.7 -23.5 -0.5 -34.4 2.6 -42.3 3.9 -64.5 9.9 -22.8 6.2 -31.8 9.6 -50.5 18.7 -29.9 14.6 -54.7 32 -77 54 -55.5 54.6 -86.3 127.9 -86.3 205.3 0 30.1 3.8 55.1 13.1 85.6 19.4 63.6 60.9 118.4 118 155.7 25.6 16.8 53.7 29.1 86 37.7 19.6 5.2 25.9 6.1 59.7 8.8 2.2 0.2 4.5 0.4 5 0.5 0.6 0.1 9.3 -0.3 19.5 -0.8z m-332 -54.9 c0 -0.5 5.5 -5.8 12.2 -11.8 6.7 -5.9 15.6 -14 19.7 -17.9 4.2 -3.9 10.8 -9.7 14.6 -12.8 10.6 -8.8 20.5 -18.6 20.5 -20.3 0 -2.1 -3.2 -7.3 -4.5 -7.3 -0.6 0 -6.5 1.6 -13.2 3.5 -6.7 1.9 -12.8 3.5 -13.5 3.5 -0.7 0 -14.1 3.6 -29.6 8.1 -24.2 6.8 -28.8 7.9 -31.3 7 -3.9 -1.4 -4.9 0.8 -2 4.5 1.2 1.5 2.1 3.2 2.1 3.8 0 0.7 0.6 2 1.3 3.1 1.3 1.7 1.6 1.7 4.3 0.2 1.6 -0.8 8.5 -2.9 15.4 -4.6 6.9 -1.6 17.5 -4.5 23.5 -6.4 15.3 -4.8 31.2 -9 32.7 -8.5 0.6 0.2 -2.6 3.6 -7.3 7.4 -4.6 3.9 -12 10.4 -16.4 14.6 -21.2 19.8 -30.6 27.7 -32 27.2 -1.8 -0.7 -2 1.3 -0.5 5 0.9 2.4 4 3.7 4 1.7z m650.9 -12.5 c1.8 -2.2 1.9 -7 0.1 -7.2 -0.8 0 -2.1 -0.2 -2.8 -0.2 -0.7 -0.1 -5.8 -4.6 -11.5 -9.9 -5.6 -5.4 -15.6 -14.5 -22.1 -20.3 -20.9 -18.5 -20.3 -17.9 -18.1 -18 1.8 0 7.3 1.4 31 8.1 3.9 1 13.5 3.5 21.5 5.5 8 2 15.8 4.3 17.4 5.1 3.4 1.6 3.8 1.3 8 -6 3 -5.2 2.2 -6.6 -2.5 -4.8 -1.7 0.6 -3.7 0.5 -6.4 -0.5 -6 -2.1 -34.8 -10.1 -45 -12.4 -4.9 -1.2 -14.4 -3.7 -21 -5.6 -6.6 -1.9 -12.9 -3.4 -14 -3.4 -2.1 0 -5.5 4.5 -5.5 7.3 0 0.8 5.1 5.9 11.3 11.3 6.1 5.4 13.7 12.2 16.7 15 3 2.8 7.5 6.9 10 9 2.5 2.1 4.7 4.1 5 4.5 0.3 0.3 5.4 4.7 11.3 9.9 6 5.1 11.4 10.4 12 11.7 1.2 2.6 2.9 3 4.6 0.9z m-678.1 -40 c0.7 -1.5 4.4 -4.2 9.9 -7.1 4.8 -2.6 13.8 -7.6 19.8 -11 27 -15.3 41.2 -22.5 44.2 -22.5 1.8 0 3.5 -0.5 3.8 -1 0.3 -0.6 -1.1 -3.5 -3.2 -6.5 -3.7 -5.3 -6.3 -7 -6.3 -4 0 0.8 -2.8 2.9 -6.2 4.6 -3.5 1.7 -7.4 3.9 -8.8 4.9 -1.4 1 -6.1 3.7 -10.5 6 -4.4 2.3 -10 5.5 -12.5 7 -12.2 7.4 -33.1 18 -35.4 18 -1.5 0 -2.9 0.6 -3.2 1.4 -1 2.5 4.3 12.6 6.6 12.6 0.4 0 1.2 -1.1 1.8 -2.4z m708 -15.6 c3.1 -6.2 2.9 -7.6 -1.4 -8.3 -1.9 -0.3 -8.5 -3.5 -14.7 -7 -6.2 -3.5 -14.4 -8.1 -18.3 -10 -7.4 -3.7 -37 -20.9 -39 -22.6 -0.7 -0.5 -1.4 -1.6 -1.6 -2.3 -0.7 -1.9 -3.1 0.3 -6.3 5.7 -3.2 5.6 -3.2 6.5 0.6 6.5 2.1 0 9.3 3.4 21.8 10.4 10.2 5.7 22.2 12.2 26.6 14.6 14.5 7.7 23.7 13.4 25.4 15.7 2.3 3.2 4.3 2.5 6.9 -2.7z m-716.9 -1.3 c0.7 -1.3 5.5 -4.6 10.9 -7.5 5.3 -2.9 14 -7.5 19.2 -10.3 5.2 -2.8 14.5 -7.9 20.5 -11.4 15.1 -8.6 21.3 -11.6 23.3 -11.4 4 0.4 4.3 0 2.6 -3.3 -0.9 -1.8 -2.8 -4.8 -4.1 -6.7 l-2.6 -3.3 -2.4 2.6 c-1.3 1.4 -4.7 3.8 -7.6 5.2 -2.9 1.5 -5.9 3.2 -6.7 3.9 -1.8 1.5 -21.9 12.7 -38.3 21.4 -6.5 3.4 -13.3 7.1 -15 8.1 -1.8 1.1 -4.4 2 -5.9 2 -3.1 0 -3.5 1.3 -1.6 5.7 3.3 7.5 5.5 9 7.7 5z m-4.3 -20.3 c4.4 -2.3 31.8 -17.5 49.6 -27.6 11.5 -6.4 16.6 -8.8 19.2 -8.8 1.9 0 3.7 -0.4 4 -0.8 0.7 -1.1 -6.6 -12.2 -8.1 -12.2 -0.6 0 -1.4 0.9 -1.8 1.9 -0.3 1.1 -2 2.4 -3.7 3 -1.7 0.6 -6.7 3.4 -11.2 6.2 -4.5 2.8 -13.7 8.2 -20.6 11.9 -6.9 3.7 -17 9.3 -22.5 12.4 -5.5 3.1 -11.8 6.2 -14 6.8 -2.2 0.6 -4.2 1.3 -4.4 1.5 -0.6 0.4 3 8.5 4.8 10.6 1.5 1.8 1.6 1.8 3.7 -0.8 1.1 -1.4 3.4 -3.3 5 -4.1z m667.8 -116.9 c2 -1.3 7.9 -1.5 43.2 -1.2 22.5 0.2 41.8 0.5 42.9 0.8 1.8 0.4 2 -0.1 2 -5.8 0 -3.4 -0.3 -6.4 -0.6 -6.7 -0.3 -0.3 -1.9 -0.1 -3.5 0.4 -3.5 1.2 -81.7 0.9 -85.1 -0.4 -2 -0.7 -2.1 -0.5 -2.5 5.6 -0.4 6 -0.1 8.8 0.8 8.8 0.3 0 1.5 -0.7 2.8 -1.5z m-692.8 -10.5 c7.2 -1.2 75.9 -0.3 78.4 1 3.6 1.9 4 1.2 4 -6.5 0 -4.1 -0.3 -7.5 -0.7 -7.5 -0.5 0.1 -1.9 0.7 -3.3 1.5 -3.7 2.1 -79.8 2.2 -83.9 0 -1.6 -0.8 -3.1 -1.1 -3.5 -0.8 -0.8 0.9 -0.8 12.8 0.1 13.7 0.4 0.3 1.4 0.4 2.2 0.1 0.9 -0.4 3.9 -1 6.7 -1.5z m693 -8.5 c1.6 -1.2 8.3 -1.4 42.2 -1.5 35.4 0 40.6 0.2 42.7 1.6 2.4 1.5 2.5 1.5 3.3 -0.5 0.4 -1.2 0.5 -4.5 0.2 -7.4 -0.4 -4.6 -0.7 -5.1 -2.5 -4.7 -4.1 0.9 -84.5 0.9 -85 -0.1 -0.4 -0.5 -1.5 -0.9 -2.6 -0.9 -1.4 0 -1.9 0.7 -1.9 2.9 0 1.5 -0.3 4.9 -0.6 7.5 -0.7 5.1 0.4 5.9 4.2 3.1z m-610.6 -11.5 c0 -3.9 -0.1 -4 -3.3 -4 -5.4 0 -29.5 -8.6 -28 -10 1.5 -1.5 26.8 -7.9 28.9 -7.4 1.6 0.4 2.3 0 2.7 -1.8 0.9 -3 0.9 -12.8 0.1 -12.8 -0.4 0 -2.1 0.9 -3.9 2 -2.8 1.8 -23.9 7.9 -40.5 11.8 -5.4 1.2 -7.2 1.3 -11.5 0.2 -8.2 -2.1 -28.8 -9.9 -31.7 -12 -1.5 -1.1 -2.9 -2 -3.2 -2 -1.1 0 -1.6 5.9 -0.7 8.3 0.9 2.4 1.3 2.6 3 1.5 1.6 -0.9 3.8 -0.5 12.7 2.7 15.6 5.4 15.7 5.5 10.9 7.2 -8.7 3.1 -22 6.2 -24 5.7 -1.9 -0.5 -2.3 0 -2.8 3 -0.3 2 -0.3 5.2 0 7.2 0.5 2.7 0.9 3.4 2.2 2.8 4.6 -2 28.8 -9.5 38.7 -12 l7.1 -1.8 9.4 3.1 c12.8 4.2 28.4 9.9 30.6 11.2 2.9 1.7 3.3 1.3 3.3 -2.9z m610.6 -7.5 c1.6 -1.2 8.3 -1.4 42.2 -1.5 35.4 0 40.6 0.2 42.7 1.6 2.3 1.5 2.5 1.5 3.1 0 0.7 -1.9 0 -12.3 -0.8 -13.2 -0.4 -0.3 -1.5 -0.1 -2.6 0.5 -3.1 1.6 -83.4 1.5 -85 -0.1 -1.9 -1.9 -2.9 0.1 -3.5 6.9 -0.6 7.7 0 8.7 3.9 5.8z m-25.5 -112.8 c0.5 -1.2 3.9 -3.8 7.5 -5.7 3.5 -1.9 15.3 -8.5 26.2 -14.6 28.2 -16 37 -20.4 40.3 -20.4 3.6 0 3.6 -1.1 0.1 -7.5 -2.9 -5.4 -5.6 -6.8 -6.7 -3.6 -0.3 1.1 -3.9 3.8 -8.3 6.2 -67.6 37.2 -63.9 35.2 -66.3 34.6 -1 -0.3 -2.2 -0.1 -2.5 0.4 -0.7 1.1 6.3 12.9 7.7 12.9 0.5 0 1.4 -1 2 -2.3z m-558.8 -3.6 c2.3 -3.8 2.2 -4.8 -0.6 -5.5 -2.1 -0.5 -22.5 -21.3 -21.6 -22 0.2 -0.2 6.3 0.8 13.4 2.1 8.6 1.6 14 3.1 15.8 4.4 1.6 1.2 3.2 1.7 3.6 1.3 1.2 -1.3 7.3 -12.4 6.9 -12.5 -0.2 0 -3.2 -0.2 -6.8 -0.3 -3.6 -0.2 -11.2 -1.4 -17 -2.8 -5.8 -1.4 -14.5 -3.3 -19.5 -4.3 -8.4 -1.7 -9.3 -2.2 -14.4 -6.9 -7.1 -6.7 -21.1 -22.7 -21.1 -24.2 0 -0.6 -0.7 -1.7 -1.5 -2.4 -1.2 -1 -1.8 -0.6 -3.5 2.2 -2.8 4.6 -2.6 6.4 0.9 7.1 3.2 0.7 21 18.9 19 19.6 -2.4 0.8 -26.9 -4.6 -26.9 -6 0 -0.5 -0.6 -0.9 -1.4 -0.9 -1.9 0 -5.5 5 -6.2 8.7 -0.6 2.8 -0.5 2.9 5.8 3.9 3.5 0.6 14.3 2.6 24.1 4.4 l17.8 3.4 14.9 15.7 c8.3 8.6 15 16.2 15 16.8 0 2 1.5 1.2 3.3 -1.8z m549.5 -13.2 c0.7 -1.1 3.4 -3 6 -4.2 2.6 -1.2 6.7 -3.6 9.2 -5.3 2.5 -1.7 10.4 -6.1 17.5 -9.9 7.2 -3.7 18.4 -9.9 25 -13.6 6.7 -3.8 13.5 -7.2 15.3 -7.5 3.8 -0.8 3.9 -1.9 1.1 -7.9 -2.8 -5.9 -3.8 -6.4 -6.2 -3.1 -1 1.5 -3.8 3.6 -6.1 4.8 -2.2 1.1 -8.1 4.4 -13.1 7.3 -4.9 2.9 -14.8 8.4 -22 12.2 -15 8.1 -21.8 11.9 -26 14.5 -1.6 1 -4.7 1.8 -6.7 1.8 -2.4 0 -3.8 0.5 -3.8 1.3 0 1.5 6.8 11.7 7.8 11.7 0.4 0 1.3 -0.9 2 -2.1z m-467 -93.9 c3.5 -2.1 4.1 -3.7 1.7 -4.6 -0.8 -0.3 -2.1 -2.9 -3 -5.7 -0.8 -2.9 -2.6 -9.2 -4 -14.1 -1.5 -4.8 -2.5 -9 -2.2 -9.2 0.7 -0.7 23.7 17.8 23.7 19.2 0 0.8 0.7 1.4 1.5 1.4 1.7 0 11.5 -6.1 11.5 -7.2 0 -0.4 -1.5 -1.4 -3.3 -2.1 -3.4 -1.5 -20.5 -14.8 -32.3 -25.3 -6.6 -5.9 -7.2 -6.7 -9.2 -13.6 -4.2 -14.5 -7.3 -28.3 -6.9 -30.5 0.6 -3.4 -3.3 -3 -6.8 0.7 -2.8 3 -2.9 3.1 -0.9 3.6 1.7 0.5 2.7 2.7 5.2 11.2 4.3 14.9 4.7 16.5 3.4 16.1 -2.6 -0.9 -21.2 -17.1 -21.2 -18.4 0 -1.8 -0.3 -1.8 -4.3 -0.1 -3.1 1.3 -8.5 6.2 -7.6 7 0.2 0.2 1.5 1 2.9 1.7 1.4 0.8 10 7.4 19.1 14.6 13.8 11 16.8 13.9 17.8 17 0.6 2.1 2.5 8.3 4.1 13.8 1.7 5.5 3.7 12.4 4.6 15.3 0.8 2.9 1.6 6.6 1.6 8.3 0.1 3.4 0.3 3.5 4.6 0.9z m377.2 -10.3 c0 -1.3 1.6 -4.5 3.5 -7.2 2 -2.8 7.7 -11.2 12.8 -18.7 21.9 -32.5 27.9 -40.9 31.2 -43.4 l3.5 -2.6 -4.7 -3.9 c-5.5 -4.5 -8.3 -5 -8.3 -1.6 0 1.3 -5.3 10 -12.4 20.3 -6.8 9.8 -16.8 24.3 -22.1 32.1 -8.9 13.2 -11.3 16.1 -16 18.8 -1.6 1 -1 1.6 4.1 4.7 7 4.3 8.4 4.6 8.4 1.5z m-333.2 -20.5 c0.2 -0.7 -1.2 -1.9 -3 -2.6 -2.4 -1 -4.8 -3.6 -8.2 -8.8 -2.7 -4 -7.2 -10.4 -10.1 -14.3 -2.9 -3.8 -7.2 -9.9 -9.7 -13.5 -2.5 -3.6 -8.1 -11.7 -12.6 -18 -4.5 -6.3 -8.4 -12.7 -8.7 -14.2 -0.4 -1.6 -1.2 -2.8 -1.9 -2.8 -1.5 0 -10.6 6.7 -10.6 7.8 0 0.4 1.4 1.6 3 2.7 1.7 1.1 6.5 7 10.7 13 4.2 6.1 10.9 15.5 14.9 21 3.9 5.5 9.7 13.8 12.7 18.5 3.1 4.7 6.5 9.6 7.6 11 1.1 1.4 2.1 3.4 2.1 4.6 0 1.1 0.3 2.4 0.7 2.7 0.8 0.9 12.5 -5.5 13.1 -7.1z m119.3 -41.7 c0.5 -4.6 3.3 -13.4 7.5 -23 2 -4.7 1.7 -5.2 6.7 11.7 1.9 6.4 3.2 12.8 3 14.2 l-0.5 2.6 7.6 0 c4.2 0 7.6 -0.2 7.6 -0.5 0 -0.3 -0.9 -1.8 -1.9 -3.3 -3.1 -4.4 -14.4 -44.3 -13.7 -48.7 0.7 -5.1 9.6 -28.7 12.6 -33.7 1.5 -2.5 2.6 -4.9 2.2 -5.2 -0.8 -0.9 -7.5 -0.7 -9.1 0.3 -1 0.6 -1.1 1.4 -0.3 2.6 0.7 1.4 0.1 4.3 -2.3 11.5 -1.8 5.3 -3.9 11 -4.8 12.6 l-1.5 2.9 -1 -2.5 c-2.5 -6.7 -6.3 -22.6 -5.8 -24.6 0.6 -2.1 0.2 -2.3 -3.9 -2.9 -6.1 -1 -9.9 0 -9 2.3 0.7 1.7 6.8 22.1 10.6 35.4 1 3.7 1.9 7.9 1.9 9.3 0 3.3 -10.6 35.9 -13 40.2 -2.1 3.6 -1.4 4.3 3.5 4 2.8 -0.2 3 -0.5 3.6 -5.2z m49.9 4.3 c0 -0.7 -0.7 -2.2 -1.5 -3.2 -1.3 -1.7 -1.5 -8.4 -1.5 -42.3 0 -29.9 0.3 -40.8 1.2 -42.3 0.7 -1 0.9 -2.3 0.4 -2.7 -0.8 -0.8 -12.5 -0.7 -13.4 0.1 -0.2 0.3 0.1 1.9 0.7 3.7 0.7 2.1 1.1 16 1.1 41.8 0 32.3 -0.3 39.1 -1.5 41.5 -1.9 3.6 -2 3.4 1.8 3.9 7.5 0.9 12.7 0.7 12.7 -0.5z m18 0.1 c0 -0.6 -0.5 -1.9 -1.1 -3 -0.6 -1.3 -1.2 -16.3 -1.4 -41.7 -0.3 -35.6 -0.2 -39.9 1.3 -42.5 1.5 -2.4 1.5 -2.9 0.2 -3.8 -1.2 -0.8 -12.8 -0.3 -13.8 0.6 -0.1 0.1 0.5 1.9 1.4 4.1 1.5 3.5 1.6 8.1 1.1 43.3 -0.4 26 -0.9 39.7 -1.6 40.4 -1.9 1.9 -1.2 2.6 2.7 3 7.7 0.8 11.2 0.7 11.2 -0.4z"
       id="path1018" />
  </g>
  <path
     style="fill:#ffffff;fill-opacity:1;stroke-width:0.0646837"
     d="m 359.47712,480.73912 c 0.0328,-0.0623 0.27696,-0.52071 0.54263,-1.01877 0.26566,-0.49807 0.69714,-1.35674 0.95884,-1.90817 0.2617,-0.55143 0.64249,-1.26084 0.84621,-1.57648 0.46079,-0.71394 1.66345,-3.07604 1.89789,-3.72759 0.13875,-0.38562 0.16741,-0.55709 0.13973,-0.83601 -0.0332,-0.33491 0.007,-0.45713 0.89446,-2.68438 4.94347,-12.41318 10.30721,-28.3334 11.60635,-34.44896 0.17479,-0.82281 0.27436,-1.42344 0.62031,-3.74206 0.24412,-1.63611 0.33557,-2.0888 0.54881,-2.71672 0.4669,-1.3748 0.61697,-2.5424 0.43771,-3.40549 -0.0769,-0.37018 -0.0819,-0.6298 -0.0277,-1.42304 0.0933,-1.36413 0.0877,-12.31414 -0.008,-14.97429 -0.0427,-1.1918 -0.11066,-2.94815 -0.15097,-3.90301 -0.0727,-1.72276 -0.0722,-1.73827 0.0666,-2.01619 0.0817,-0.16354 0.15492,-0.4639 0.17604,-0.72187 0.069,-0.84257 0.26041,-1.19769 0.80082,-1.48552 0.19065,-0.10154 0.36938,-0.1202 1.13197,-0.11817 0.77765,0.002 1.00607,0.0282 1.61709,0.18514 3.11411,0.79976 8.0834,3.02109 13.22782,5.91301 10.60121,5.95944 22.19903,14.85724 25.94137,19.90212 0.7945,1.07103 1.12898,1.79139 1.22768,2.64398 0.0689,0.59516 0.2354,0.97648 0.55838,1.27878 0.12761,0.11945 0.37385,0.35524 0.5472,0.52399 0.68586,0.66769 4.50549,6.71273 6.83288,10.81389 2.11345,3.72419 5.03497,8.5593 6.01485,9.95458 0.39285,0.5594 0.66553,0.79587 1.76296,1.5289 1.75292,1.17084 4.2546,2.57693 7.17989,4.03547 2.97496,1.48332 3.95347,1.85052 4.164,1.5626 0.0745,-0.1019 0.1111,-0.10528 0.33692,-0.0311 0.31819,0.10448 0.65475,0.31503 1.19125,0.74526 0.5206,0.41746 0.89781,0.61174 1.18774,0.61174 0.18923,0 0.2328,-0.0291 0.2903,-0.19405 0.0418,-0.11991 0.11217,-0.19351 0.18421,-0.19263 0.20569,0.003 0.62114,0.22868 1.11915,0.60927 0.26682,0.20391 0.61736,0.43844 0.77897,0.52116 0.78571,0.4022 1.77747,0.49736 2.50399,0.24028 0.76241,-0.26978 1.3638,-0.1638 1.83247,0.32292 0.38217,0.39688 0.71623,0.53963 1.62723,0.69538 1.23827,0.21169 3.05205,0.28298 5.3532,0.2104 3.23106,-0.10191 4.34552,0.018 4.90594,0.52772 0.20405,0.18561 0.30264,0.38813 0.43067,0.88471 0.14197,0.5506 0.39493,1.00587 0.64466,1.16021 0.17944,0.1109 0.2628,0.28649 0.74395,1.56696 0.29802,0.79313 0.88611,2.30989 1.30686,3.37057 0.60266,1.51927 0.75126,1.95418 0.70027,2.04946 -0.17946,0.33533 0.009,0.9595 0.73264,2.42572 0.29848,0.60479 0.69234,1.35849 0.87525,1.67489 l 0.33258,0.57526 v 2.35168 2.35167 h -58.34701 c -55.54815,0 -58.34414,-0.005 -58.28741,-0.11319 z"
     id="path1038" />
  <path
     style="fill:#ffffff;fill-opacity:1;stroke-width:0.0646837"
     d="m 359.70161,480.31867 c 0.34992,-0.64387 1.66098,-3.26427 1.66098,-3.31977 0,-0.0217 0.19575,-0.34966 0.43501,-0.72886 0.57906,-0.91778 1.78718,-3.31333 1.96317,-3.89273 0.10043,-0.33065 0.12909,-0.54609 0.10045,-0.75506 -0.0367,-0.26793 0.0325,-0.47439 0.82739,-2.4685 4.37863,-10.98408 9.33215,-25.40253 11.15879,-32.48043 0.48546,-1.88105 0.67147,-2.82977 1.07132,-5.4639 0.30641,-2.01858 0.40221,-2.50769 0.61448,-3.13716 0.45651,-1.35376 0.61117,-2.55463 0.4376,-3.39777 -0.0713,-0.34624 -0.0813,-0.65066 -0.0425,-1.29368 0.0279,-0.46249 0.0705,-2.58735 0.0948,-4.72191 0.0468,-4.12153 -0.0251,-8.82653 -0.2047,-13.39484 l -0.10448,-2.65733 0.13891,-0.27229 c 0.081,-0.15884 0.15367,-0.45309 0.17434,-0.70622 0.0543,-0.66511 0.18771,-1.01247 0.4873,-1.26891 0.35866,-0.307 0.74245,-0.38646 1.66361,-0.34444 1.44746,0.066 3.63774,0.78465 7.28446,2.39 7.27815,3.20397 17.11861,9.36263 24.83855,15.54521 4.71854,3.77889 8.22484,7.31309 9.22912,9.30256 0.28105,0.55675 0.37465,0.84986 0.44335,1.38829 0.0908,0.71152 0.24981,1.00535 0.864,1.59636 0.4377,0.42119 0.72934,0.80631 1.56745,2.06988 1.7781,2.68075 3.55213,5.58514 5.82766,9.54085 2.30853,4.0131 4.33837,7.3706 5.46307,9.0363 0.6207,0.91927 0.83821,1.12712 1.96138,1.87425 3.03081,2.01609 9.81967,5.52959 10.99591,5.69081 0.23969,0.0329 0.31214,0.0187 0.38003,-0.0741 0.0748,-0.10234 0.11121,-0.10574 0.33721,-0.0315 0.3092,0.10153 0.67206,0.32357 1.07251,0.6563 0.50399,0.41875 1.0227,0.7007 1.28909,0.7007 0.20855,0 0.24891,-0.0255 0.30769,-0.19405 0.0418,-0.11991 0.11217,-0.19351 0.18421,-0.19263 0.20569,0.003 0.62114,0.22868 1.11915,0.60927 0.26682,0.20391 0.61736,0.43844 0.77897,0.52116 0.78432,0.40148 1.76836,0.49515 2.50399,0.23835 0.77654,-0.27107 1.34366,-0.16391 1.87959,0.35516 0.25865,0.25052 0.45302,0.37295 0.74688,0.47046 1.05792,0.35103 3.27711,0.49586 6.18643,0.40374 4.06586,-0.12873 4.96441,0.0765 5.27468,1.20491 0.20454,0.7439 0.30572,0.94938 0.61776,1.25455 0.29218,0.28575 0.34652,0.39668 0.87122,1.7788 0.30777,0.81072 0.89106,2.31303 1.29619,3.33846 0.57782,1.46253 0.72271,1.89036 0.67218,1.98477 -0.0991,0.18526 -0.0772,0.4822 0.0682,0.92327 0.14972,0.4542 1.12791,2.46635 1.57665,3.24319 l 0.29595,0.51234 v 2.34992 2.34991 H 417.76157 359.4116 Z"
     id="path1040" />
  <path
     style="fill:#ffffff;fill-opacity:1;stroke-width:0.182953"
     d="m 232.64791,576.00896 c 0,-0.0774 0.30982,-0.75658 0.68849,-1.50936 1.37439,-2.73226 3.66721,-5.76681 6.57339,-8.69987 7.03831,-7.10343 15.43233,-11.34554 52.83826,-26.70303 13.82664,-5.67671 19.03773,-8.33455 25.76322,-13.14015 6.27899,-4.48656 12.40614,-9.66241 18.21118,-15.38374 8.39994,-8.27879 14.83379,-16.34794 20.28624,-25.44241 2.35523,-3.92843 6.81669,-12.547 6.81669,-13.16837 0,-0.28307 0.77424,-2.49922 1.72055,-4.92478 4.05886,-10.40365 8.39782,-23.11432 10.18649,-29.8406 0.3211,-1.20749 0.85717,-3.75969 1.19127,-5.67155 0.3341,-1.91186 0.73205,-3.9169 0.88434,-4.45565 0.23878,-0.8447 0.26229,-2.4691 0.1708,-11.80048 -0.0584,-5.95152 -0.1131,-11.27376 -0.12167,-11.82719 -0.0198,-1.27832 0.29385,-2.69509 0.68265,-3.08363 0.52892,-0.52856 2.45713,-0.36373 4.69661,0.40147 9.31111,3.1815 23.75333,12.23636 33.44166,20.96698 3.02458,2.7256 4.86256,5.1726 5.33385,7.10119 0.10467,0.42834 0.43417,1.02827 0.73222,1.33318 1.05803,1.08235 4.12942,5.92231 7.94776,12.52428 2.81175,4.86157 5.13815,8.54383 5.80661,9.19078 1.63489,1.58231 10.876,6.48909 12.33567,6.54989 0.56945,0.0237 1.05134,0.21592 1.7529,0.69909 0.97265,0.66989 1.42174,0.82259 1.42174,0.48341 0,-0.35278 0.56359,-0.17691 1.56605,0.48868 1.05304,0.69919 1.37732,0.75042 3.68354,0.58193 0.59394,-0.0434 0.86627,0.037 1.20564,0.35581 0.24112,0.22652 0.71916,0.50047 1.0623,0.60879 0.34313,0.10832 2.8177,0.25043 5.49905,0.3158 4.44044,0.10826 4.90946,0.14994 5.2599,0.46738 0.21161,0.19169 0.38475,0.48631 0.38475,0.65471 0,0.16841 0.23861,0.6702 0.53026,1.11511 0.68726,1.04843 2.94586,6.89717 2.94586,7.62843 0,0.56905 0.57097,1.75476 3.54393,7.35936 6.07567,11.45387 13.04698,20.81428 22.69893,30.47802 4.58437,4.58997 7.51212,7.23991 11.99436,10.85627 10.75518,8.67748 16.02123,11.67131 32.19977,18.30611 21.20538,8.6963 28.63086,11.89188 35.85883,15.43195 8.47002,4.14839 13.07203,7.10216 17.10686,10.97993 l 1.74157,1.67379 -0.002,4.61957 -0.002,4.61957 H 415.96705 c -100.82553,0 -183.31914,-0.0633 -183.31914,-0.14067 z"
     id="path1044" />
  <path
     style="fill:#ffffff;fill-opacity:1;stroke-width:0.182953"
     d="m 232.64791,576.06337 c 0,-0.25576 0.95963,-2.18302 1.63387,-3.28134 2.50021,-4.07284 6.63182,-8.4279 10.87124,-11.45921 2.35598,-1.68459 3.70347,-2.50569 7.40177,-4.51033 6.92525,-3.75378 15.29142,-7.46888 36.16829,-16.06094 11.97752,-4.92946 14.95839,-6.22926 19.11861,-8.3366 5.14493,-2.60615 9.19957,-5.21905 14.72562,-9.48954 14.04799,-10.85616 25.7633,-23.59711 33.85227,-36.81595 2.71594,-4.43833 7.4058,-13.42058 7.4058,-14.18395 0,-0.25934 0.69091,-2.25175 1.53537,-4.42757 4.51042,-11.62151 8.77672,-24.14521 10.44702,-30.6672 0.33501,-1.30811 0.82003,-3.65449 1.07782,-5.21416 0.25779,-1.55968 0.63029,-3.46652 0.82778,-4.23742 0.38037,-1.48474 0.3745,-0.46864 0.13833,-23.93738 -0.013,-1.28834 0.30216,-2.69825 0.68921,-3.08363 0.5277,-0.52544 2.47277,-0.35801 4.70607,0.40508 9.88463,3.37746 26.19719,13.8077 34.66232,22.16307 2.67274,2.6381 3.75745,4.2327 4.16912,6.12893 0.0546,0.25156 0.39077,0.78233 0.747,1.17949 0.95172,1.06106 2.75282,3.83695 5.64083,8.69371 1.40817,2.36812 3.3435,5.62294 4.30075,7.23293 2.39411,4.02666 3.3692,5.44173 4.18363,6.07141 2.64475,2.04479 10.51202,6.10371 11.99251,6.18725 0.44013,0.0248 0.99022,0.24503 1.4725,0.58943 0.8829,0.63048 1.59319,0.90302 1.59319,0.6113 0,-0.3485 0.55682,-0.20739 1.35874,0.34435 1.0857,0.74698 2.21438,1.01051 3.19594,0.7462 0.8522,-0.22948 1.3905,-0.12809 1.94016,0.36542 0.67803,0.60874 1.91715,0.77293 6.70462,0.8884 5.1352,0.12386 5.27653,0.15621 5.54835,1.27009 0.0657,0.26931 0.31479,0.77781 0.55347,1.13 0.6066,0.89506 2.83607,6.72706 2.83607,7.41878 0,1.3031 6.19137,12.55786 10.19311,18.52918 6.98581,10.4241 16.05122,20.27431 27.03787,29.37861 7.3498,6.09054 13.07235,9.90121 19.9419,13.27934 4.4986,2.21222 5.70263,2.73437 17.37929,7.53686 33.11567,13.62013 41.75125,17.98331 48.80404,24.65853 l 1.78379,1.6883 v 4.64741 4.64741 H 415.96705 c -100.82553,0 -183.31914,-0.0388 -183.31914,-0.0863 z"
     id="path1046" />
  <rect
     style="fill:#808080;fill-opacity:1"
     id="rect1050"
     width="4.4451818"
     height="4.3837414"
     x="603.16962"
     y="-10.287563"
     transform="rotate(45)"
     ry="0" />
</svg>
